G04 #@! TF.FileFunction,Copper,L2,Bot,Signal*
%FSLAX46Y46*%
G04 Gerber Fmt 4.6, Leading zero omitted, Abs format (unit mm)*
G04 Created by KiCad (PCBNEW 4.0.2-stable) date Saturday, 16 July 2016 'pmt' 14:41:27*
%MOMM*%
G01*
G04 APERTURE LIST*
%ADD10C,0.100000*%
%ADD11C,1.500000*%
%ADD12R,1.000000X1.600000*%
%ADD13R,1.500000X1.300000*%
%ADD14R,1.300000X1.500000*%
%ADD15C,1.524000*%
%ADD16R,1.800000X1.000000*%
%ADD17R,3.048000X1.000000*%
%ADD18R,3.048000X1.651000*%
%ADD19R,6.096000X6.096000*%
%ADD20R,1.500000X1.250000*%
%ADD21R,1.600000X2.000000*%
%ADD22C,0.600000*%
%ADD23C,0.400000*%
%ADD24C,0.800000*%
%ADD25C,0.250000*%
%ADD26C,0.254000*%
G04 APERTURE END LIST*
D10*
D11*
X95250000Y-38100000D03*
X95250000Y-40100000D03*
D12*
X52880000Y-41910000D03*
X55880000Y-41910000D03*
X52880000Y-36830000D03*
X55880000Y-36830000D03*
D13*
X58340000Y-39370000D03*
X61040000Y-39370000D03*
X58340000Y-36830000D03*
X61040000Y-36830000D03*
X86440000Y-50800000D03*
X83740000Y-50800000D03*
D14*
X62230000Y-45800000D03*
X62230000Y-43100000D03*
X59690000Y-45800000D03*
X59690000Y-43100000D03*
D15*
X49530000Y-24130000D03*
X49530000Y-26670000D03*
X49530000Y-29210000D03*
X49530000Y-31750000D03*
X49530000Y-34290000D03*
X49530000Y-36830000D03*
X49530000Y-39370000D03*
X49530000Y-41910000D03*
X49530000Y-44450000D03*
X49530000Y-46990000D03*
X49530000Y-49530000D03*
X49530000Y-52070000D03*
X49530000Y-54610000D03*
X49530000Y-57150000D03*
X64770000Y-57150000D03*
X64770000Y-54610000D03*
X64770000Y-52070000D03*
X64770000Y-49530000D03*
X64770000Y-46990000D03*
X64770000Y-44450000D03*
X64770000Y-41910000D03*
X64770000Y-39370000D03*
X64770000Y-36830000D03*
X64770000Y-34290000D03*
X64770000Y-31750000D03*
X64770000Y-29210000D03*
X54610000Y-57150000D03*
X62230000Y-57150000D03*
X64770000Y-26670000D03*
X57150000Y-57150000D03*
X52070000Y-57150000D03*
D16*
X54480000Y-51800000D03*
X54480000Y-49800000D03*
X57280000Y-49800000D03*
X57280000Y-51800000D03*
D17*
X59690000Y-68580000D03*
D18*
X59690000Y-66294000D03*
D19*
X53340000Y-68580000D03*
D18*
X59690000Y-70866000D03*
D20*
X54630000Y-54610000D03*
X57130000Y-54610000D03*
D21*
X87630000Y-60230000D03*
X87630000Y-64230000D03*
D20*
X67330000Y-30480000D03*
X69830000Y-30480000D03*
D15*
X48260000Y-62230000D03*
X74930000Y-66040000D03*
X73660000Y-63500000D03*
X76200000Y-63500000D03*
X75530000Y-71120000D03*
X73290000Y-71120000D03*
X67310000Y-66040000D03*
X71050000Y-71120000D03*
X64770000Y-71120000D03*
D22*
X71120000Y-27940000D03*
X93980000Y-59690000D03*
X95250000Y-60960000D03*
X92710000Y-60960000D03*
X87630000Y-69850000D03*
X88900000Y-38100000D03*
X78740000Y-40640000D03*
X48260000Y-68580000D03*
X69850000Y-63500000D03*
X72390000Y-26670000D03*
X71120000Y-26670000D03*
X62230000Y-71120000D03*
X85090000Y-63500000D03*
X67310000Y-45720000D03*
X67310000Y-33020000D03*
X85090000Y-59690000D03*
X62230000Y-66040000D03*
X64770000Y-66040000D03*
X87630000Y-52070000D03*
X53340000Y-59690000D03*
X55880000Y-59690000D03*
X66040000Y-59690000D03*
X68580000Y-59690000D03*
X81280000Y-54610000D03*
X85090000Y-54610000D03*
X73660000Y-55880000D03*
X73660000Y-58420000D03*
X71120000Y-62230000D03*
X68580000Y-62230000D03*
X58420000Y-62230000D03*
X55880000Y-62230000D03*
X86360000Y-53340000D03*
X74930000Y-57150000D03*
X88900000Y-54610000D03*
X71120000Y-57150000D03*
X68580000Y-57150000D03*
X95250000Y-53340000D03*
X90170000Y-53340000D03*
X71120000Y-48260000D03*
X76200000Y-48260000D03*
X77470000Y-62230000D03*
X91440000Y-59690000D03*
X68580000Y-60960000D03*
X58420000Y-60960000D03*
X55880000Y-60960000D03*
X53340000Y-60960000D03*
X52070000Y-48260000D03*
X59690000Y-48260000D03*
X68580000Y-50800000D03*
X71120000Y-50800000D03*
X76200000Y-46990000D03*
X68580000Y-54610000D03*
X71120000Y-54610000D03*
X78740000Y-46990000D03*
X57150000Y-43180000D03*
X57150000Y-45720000D03*
D23*
X95250000Y-62230000D02*
X95250000Y-64770000D01*
X95250000Y-64770000D02*
X95250000Y-66040000D01*
D24*
X92710000Y-60960000D02*
X95250000Y-60960000D01*
X87630000Y-64230000D02*
X87630000Y-69850000D01*
X61040000Y-36830000D02*
X61040000Y-27860000D01*
X62230000Y-26670000D02*
X64770000Y-26670000D01*
X61040000Y-27860000D02*
X62230000Y-26670000D01*
X61040000Y-39370000D02*
X61040000Y-36830000D01*
X57150000Y-57150000D02*
X57150000Y-51930000D01*
X57150000Y-51930000D02*
X57280000Y-51800000D01*
X53340000Y-68580000D02*
X48260000Y-68580000D01*
X57150000Y-63500000D02*
X69850000Y-63500000D01*
X53340000Y-68580000D02*
X53340000Y-67310000D01*
X53340000Y-67310000D02*
X57150000Y-63500000D01*
X57150000Y-63500000D02*
X57150000Y-57150000D01*
X68580000Y-26670000D02*
X72390000Y-26670000D01*
X69850000Y-26670000D02*
X64770000Y-26670000D01*
X69850000Y-63500000D02*
X69850000Y-26670000D01*
X64770000Y-26670000D02*
X71120000Y-26670000D01*
X64770000Y-71120000D02*
X62230000Y-71120000D01*
X61976000Y-70866000D02*
X59690000Y-70866000D01*
X62230000Y-71120000D02*
X61976000Y-70866000D01*
X83820000Y-63500000D02*
X85090000Y-63500000D01*
X76200000Y-71120000D02*
X83820000Y-63500000D01*
X75530000Y-71120000D02*
X76200000Y-71120000D01*
D23*
X60960000Y-45700000D02*
X67230000Y-45700000D01*
X67230000Y-45800000D02*
X67310000Y-45720000D01*
D24*
X75530000Y-71120000D02*
X73290000Y-71120000D01*
X73290000Y-71120000D02*
X71050000Y-71120000D01*
X75530000Y-71120000D02*
X74930000Y-71120000D01*
X74930000Y-71120000D02*
X69850000Y-66040000D01*
X69850000Y-66040000D02*
X67310000Y-66040000D01*
X67330000Y-30480000D02*
X67330000Y-33000000D01*
X67330000Y-33000000D02*
X67310000Y-33020000D01*
X87630000Y-60230000D02*
X85630000Y-60230000D01*
X85630000Y-60230000D02*
X85090000Y-59690000D01*
X59690000Y-45800000D02*
X60960000Y-45800000D01*
X60960000Y-45800000D02*
X62230000Y-45800000D01*
X54610000Y-57150000D02*
X54610000Y-51930000D01*
X54610000Y-51930000D02*
X54480000Y-51800000D01*
X62230000Y-66040000D02*
X62230000Y-66294000D01*
X62230000Y-66294000D02*
X62230000Y-66040000D01*
X62230000Y-66040000D02*
X62230000Y-66294000D01*
X62230000Y-66294000D02*
X64516000Y-66294000D01*
X59690000Y-66294000D02*
X62230000Y-66294000D01*
X64516000Y-66294000D02*
X64770000Y-66040000D01*
X86440000Y-50800000D02*
X86440000Y-50880000D01*
X86440000Y-50880000D02*
X87630000Y-52070000D01*
D23*
X49530000Y-41910000D02*
X52880000Y-41910000D01*
X55880000Y-41910000D02*
X55880000Y-41830000D01*
X55880000Y-41830000D02*
X58340000Y-39370000D01*
X52880000Y-36830000D02*
X53340000Y-36830000D01*
X53340000Y-36830000D02*
X54610000Y-38100000D01*
X54610000Y-38100000D02*
X54610000Y-43180000D01*
X54610000Y-43180000D02*
X53340000Y-44450000D01*
X53340000Y-44450000D02*
X49530000Y-44450000D01*
X55880000Y-36830000D02*
X58340000Y-36830000D01*
X53340000Y-59690000D02*
X55880000Y-59690000D01*
X66040000Y-59690000D02*
X68580000Y-59690000D01*
X81280000Y-54610000D02*
X85090000Y-54610000D01*
X71120000Y-62230000D02*
X72390000Y-62230000D01*
X72390000Y-62230000D02*
X73660000Y-60960000D01*
X73660000Y-60960000D02*
X73660000Y-58420000D01*
X49530000Y-54610000D02*
X50800000Y-55880000D01*
X78740000Y-50800000D02*
X83740000Y-50800000D01*
X73660000Y-55880000D02*
X78740000Y-50800000D01*
X73660000Y-60960000D02*
X73660000Y-58420000D01*
X58420000Y-62230000D02*
X68580000Y-62230000D01*
X50800000Y-62230000D02*
X55880000Y-62230000D01*
X50800000Y-55880000D02*
X50800000Y-62230000D01*
D25*
X83740000Y-50800000D02*
X83820000Y-50800000D01*
D23*
X83820000Y-50800000D02*
X86360000Y-53340000D01*
X71120000Y-57150000D02*
X74930000Y-57150000D01*
X74930000Y-57150000D02*
X77470000Y-57150000D01*
X88900000Y-54610000D02*
X86360000Y-54610000D01*
X86360000Y-54610000D02*
X85090000Y-53340000D01*
X64770000Y-57150000D02*
X68580000Y-57150000D01*
X81280000Y-53340000D02*
X85090000Y-53340000D01*
X80010000Y-53340000D02*
X81280000Y-53340000D01*
X78740000Y-54610000D02*
X80010000Y-53340000D01*
X78740000Y-55880000D02*
X78740000Y-54610000D01*
X77470000Y-57150000D02*
X78740000Y-55880000D01*
X95250000Y-53340000D02*
X90170000Y-53340000D01*
X71120000Y-48260000D02*
X76200000Y-48260000D01*
X77470000Y-62230000D02*
X90170000Y-62230000D01*
X90170000Y-62230000D02*
X91440000Y-60960000D01*
X91440000Y-60960000D02*
X91440000Y-59690000D01*
X58420000Y-60960000D02*
X68580000Y-60960000D01*
X53340000Y-60960000D02*
X55880000Y-60960000D01*
X50800000Y-49530000D02*
X49530000Y-49530000D01*
X52070000Y-48260000D02*
X50800000Y-49530000D01*
X59690000Y-49530000D02*
X59690000Y-48260000D01*
X60960000Y-50800000D02*
X59690000Y-49530000D01*
X68580000Y-50800000D02*
X60960000Y-50800000D01*
X76200000Y-50800000D02*
X71120000Y-50800000D01*
X77470000Y-49530000D02*
X76200000Y-50800000D01*
X77470000Y-48260000D02*
X77470000Y-49530000D01*
X76200000Y-46990000D02*
X77470000Y-48260000D01*
X71120000Y-54610000D02*
X73660000Y-54610000D01*
X68580000Y-54610000D02*
X64770000Y-54610000D01*
X78740000Y-49530000D02*
X78740000Y-46990000D01*
X73660000Y-54610000D02*
X78740000Y-49530000D01*
X59690000Y-43100000D02*
X57230000Y-43100000D01*
X57230000Y-43100000D02*
X57150000Y-43180000D01*
X57280000Y-49800000D02*
X57280000Y-45850000D01*
X57280000Y-45850000D02*
X57150000Y-45720000D01*
X62230000Y-43100000D02*
X62230000Y-44450000D01*
X55880000Y-44450000D02*
X62230000Y-44450000D01*
X62230000Y-44450000D02*
X64770000Y-44450000D01*
X54480000Y-45850000D02*
X55880000Y-44450000D01*
X54480000Y-49800000D02*
X54480000Y-45850000D01*
D26*
G36*
X95123000Y-38714889D02*
X94975715Y-38714760D01*
X94466485Y-38925169D01*
X94076539Y-39314436D01*
X93865241Y-39823298D01*
X93864760Y-40374285D01*
X94075169Y-40883515D01*
X94464436Y-41273461D01*
X94973298Y-41484759D01*
X95123000Y-41484890D01*
X95123000Y-52404889D01*
X95064833Y-52404838D01*
X94822422Y-52505000D01*
X90597234Y-52505000D01*
X90356799Y-52405162D01*
X89984833Y-52404838D01*
X89641057Y-52546883D01*
X89377808Y-52809673D01*
X89235162Y-53153201D01*
X89234838Y-53525167D01*
X89340310Y-53780430D01*
X89086799Y-53675162D01*
X88714833Y-53674838D01*
X88472422Y-53775000D01*
X87191775Y-53775000D01*
X87294838Y-53526799D01*
X87295162Y-53154833D01*
X87242743Y-53027969D01*
X87630000Y-53105001D01*
X88026077Y-53026215D01*
X88361855Y-52801855D01*
X88586215Y-52466077D01*
X88665001Y-52070000D01*
X88586215Y-51673923D01*
X88361855Y-51338144D01*
X87837440Y-50813729D01*
X87837440Y-50150000D01*
X87793162Y-49914683D01*
X87654090Y-49698559D01*
X87441890Y-49553569D01*
X87190000Y-49502560D01*
X85690000Y-49502560D01*
X85454683Y-49546838D01*
X85238559Y-49685910D01*
X85093569Y-49898110D01*
X85090919Y-49911197D01*
X84954090Y-49698559D01*
X84741890Y-49553569D01*
X84490000Y-49502560D01*
X82990000Y-49502560D01*
X82754683Y-49546838D01*
X82538559Y-49685910D01*
X82393569Y-49898110D01*
X82380023Y-49965000D01*
X79434292Y-49965000D01*
X79511439Y-49849541D01*
X79575000Y-49530000D01*
X79575000Y-47417234D01*
X79674838Y-47176799D01*
X79675162Y-46804833D01*
X79533117Y-46461057D01*
X79270327Y-46197808D01*
X78926799Y-46055162D01*
X78554833Y-46054838D01*
X78211057Y-46196883D01*
X77947808Y-46459673D01*
X77805162Y-46803201D01*
X77804838Y-47175167D01*
X77905000Y-47417578D01*
X77905000Y-47514132D01*
X77092535Y-46701667D01*
X76993117Y-46461057D01*
X76730327Y-46197808D01*
X76386799Y-46055162D01*
X76014833Y-46054838D01*
X75671057Y-46196883D01*
X75407808Y-46459673D01*
X75265162Y-46803201D01*
X75264838Y-47175167D01*
X75368067Y-47425000D01*
X71547234Y-47425000D01*
X71306799Y-47325162D01*
X70934833Y-47324838D01*
X70591057Y-47466883D01*
X70327808Y-47729673D01*
X70185162Y-48073201D01*
X70184838Y-48445167D01*
X70326883Y-48788943D01*
X70589673Y-49052192D01*
X70933201Y-49194838D01*
X71305167Y-49195162D01*
X71547578Y-49095000D01*
X75772766Y-49095000D01*
X76013201Y-49194838D01*
X76385167Y-49195162D01*
X76635000Y-49091933D01*
X76635000Y-49184132D01*
X75854132Y-49965000D01*
X71547234Y-49965000D01*
X71306799Y-49865162D01*
X70934833Y-49864838D01*
X70591057Y-50006883D01*
X70327808Y-50269673D01*
X70185162Y-50613201D01*
X70184838Y-50985167D01*
X70326883Y-51328943D01*
X70589673Y-51592192D01*
X70933201Y-51734838D01*
X71305167Y-51735162D01*
X71547578Y-51635000D01*
X75454132Y-51635000D01*
X73314132Y-53775000D01*
X71547234Y-53775000D01*
X71306799Y-53675162D01*
X70934833Y-53674838D01*
X70591057Y-53816883D01*
X70327808Y-54079673D01*
X70185162Y-54423201D01*
X70184838Y-54795167D01*
X70326883Y-55138943D01*
X70589673Y-55402192D01*
X70933201Y-55544838D01*
X71305167Y-55545162D01*
X71547578Y-55445000D01*
X72828225Y-55445000D01*
X72725162Y-55693201D01*
X72724838Y-56065167D01*
X72828067Y-56315000D01*
X71547234Y-56315000D01*
X71306799Y-56215162D01*
X70934833Y-56214838D01*
X70591057Y-56356883D01*
X70327808Y-56619673D01*
X70185162Y-56963201D01*
X70184838Y-57335167D01*
X70326883Y-57678943D01*
X70589673Y-57942192D01*
X70933201Y-58084838D01*
X71305167Y-58085162D01*
X71547578Y-57985000D01*
X72828225Y-57985000D01*
X72725162Y-58233201D01*
X72724838Y-58605167D01*
X72825000Y-58847578D01*
X72825000Y-60614132D01*
X72044132Y-61395000D01*
X71547234Y-61395000D01*
X71306799Y-61295162D01*
X70934833Y-61294838D01*
X70591057Y-61436883D01*
X70327808Y-61699673D01*
X70185162Y-62043201D01*
X70184838Y-62415167D01*
X70326883Y-62758943D01*
X70589673Y-63022192D01*
X70933201Y-63164838D01*
X71305167Y-63165162D01*
X71547578Y-63065000D01*
X72390000Y-63065000D01*
X72709541Y-63001439D01*
X72980434Y-62820434D01*
X74250434Y-61550434D01*
X74291521Y-61488943D01*
X74431439Y-61279541D01*
X74495000Y-60960000D01*
X74495000Y-58847234D01*
X74594838Y-58606799D01*
X74595162Y-58234833D01*
X74491933Y-57985000D01*
X74502766Y-57985000D01*
X74743201Y-58084838D01*
X75115167Y-58085162D01*
X75357578Y-57985000D01*
X77470000Y-57985000D01*
X77789541Y-57921439D01*
X78060434Y-57740434D01*
X79330434Y-56470434D01*
X79371521Y-56408943D01*
X79511439Y-56199541D01*
X79575000Y-55880000D01*
X79575000Y-54955868D01*
X80355868Y-54175000D01*
X80448225Y-54175000D01*
X80345162Y-54423201D01*
X80344838Y-54795167D01*
X80486883Y-55138943D01*
X80749673Y-55402192D01*
X81093201Y-55544838D01*
X81465167Y-55545162D01*
X81707578Y-55445000D01*
X84662766Y-55445000D01*
X84903201Y-55544838D01*
X85275167Y-55545162D01*
X85618943Y-55403117D01*
X85800964Y-55221413D01*
X86040459Y-55381439D01*
X86360000Y-55445000D01*
X88472766Y-55445000D01*
X88713201Y-55544838D01*
X89085167Y-55545162D01*
X89428943Y-55403117D01*
X89692192Y-55140327D01*
X89834838Y-54796799D01*
X89835162Y-54424833D01*
X89729690Y-54169570D01*
X89983201Y-54274838D01*
X90355167Y-54275162D01*
X90597578Y-54175000D01*
X94822766Y-54175000D01*
X95063201Y-54274838D01*
X95123000Y-54274890D01*
X95123000Y-61420262D01*
X94930459Y-61458561D01*
X94659566Y-61639566D01*
X94478561Y-61910459D01*
X94415000Y-62230000D01*
X94415000Y-66040000D01*
X94478561Y-66359541D01*
X94659566Y-66630434D01*
X94930459Y-66811439D01*
X95123000Y-66849738D01*
X95123000Y-70993000D01*
X77790712Y-70993000D01*
X84248711Y-64535000D01*
X85090000Y-64535000D01*
X85486077Y-64456215D01*
X85821856Y-64231856D01*
X86046215Y-63896077D01*
X86125000Y-63500000D01*
X86046215Y-63103923D01*
X86020208Y-63065000D01*
X90170000Y-63065000D01*
X90489541Y-63001439D01*
X90760434Y-62820434D01*
X92030434Y-61550434D01*
X92071521Y-61488943D01*
X92211439Y-61279541D01*
X92275000Y-60960000D01*
X92275000Y-60117234D01*
X92374838Y-59876799D01*
X92375162Y-59504833D01*
X92233117Y-59161057D01*
X91970327Y-58897808D01*
X91626799Y-58755162D01*
X91254833Y-58754838D01*
X90911057Y-58896883D01*
X90647808Y-59159673D01*
X90505162Y-59503201D01*
X90504838Y-59875167D01*
X90605000Y-60117578D01*
X90605000Y-60614132D01*
X89824132Y-61395000D01*
X89044027Y-61395000D01*
X89077440Y-61230000D01*
X89077440Y-59230000D01*
X89033162Y-58994683D01*
X88894090Y-58778559D01*
X88681890Y-58633569D01*
X88430000Y-58582560D01*
X86830000Y-58582560D01*
X86594683Y-58626838D01*
X86378559Y-58765910D01*
X86233569Y-58978110D01*
X86189648Y-59195000D01*
X86058712Y-59195000D01*
X85821856Y-58958144D01*
X85486077Y-58733785D01*
X85090000Y-58654999D01*
X84693923Y-58733785D01*
X84358144Y-58958144D01*
X84133785Y-59293923D01*
X84054999Y-59690000D01*
X84133785Y-60086077D01*
X84358144Y-60421856D01*
X84898142Y-60961853D01*
X84898144Y-60961856D01*
X85099429Y-61096349D01*
X85233922Y-61186215D01*
X85630000Y-61265000D01*
X86189146Y-61265000D01*
X86213607Y-61395000D01*
X77897234Y-61395000D01*
X77656799Y-61295162D01*
X77284833Y-61294838D01*
X76941057Y-61436883D01*
X76677808Y-61699673D01*
X76535162Y-62043201D01*
X76534838Y-62415167D01*
X76676883Y-62758943D01*
X76939673Y-63022192D01*
X77283201Y-63164838D01*
X77655167Y-63165162D01*
X77897578Y-63065000D01*
X82791289Y-63065000D01*
X76037998Y-69818290D01*
X75809100Y-69723243D01*
X75253339Y-69722758D01*
X75071573Y-69797862D01*
X70581856Y-65308144D01*
X70246077Y-65083785D01*
X69850000Y-65004999D01*
X69849995Y-65005000D01*
X68250740Y-65005000D01*
X68102370Y-64856371D01*
X67589100Y-64643243D01*
X67033339Y-64642758D01*
X66519697Y-64854990D01*
X66126371Y-65247630D01*
X65913243Y-65760900D01*
X65912758Y-66316661D01*
X66124990Y-66830303D01*
X66517630Y-67223629D01*
X67030900Y-67436757D01*
X67586661Y-67437242D01*
X68100303Y-67225010D01*
X68250575Y-67075000D01*
X69421288Y-67075000D01*
X72390393Y-70044104D01*
X72349425Y-70085000D01*
X71990740Y-70085000D01*
X71842370Y-69936371D01*
X71329100Y-69723243D01*
X70773339Y-69722758D01*
X70259697Y-69934990D01*
X69866371Y-70327630D01*
X69653243Y-70840900D01*
X69653110Y-70993000D01*
X66167111Y-70993000D01*
X66167242Y-70843339D01*
X65955010Y-70329697D01*
X65562370Y-69936371D01*
X65049100Y-69723243D01*
X64493339Y-69722758D01*
X63979697Y-69934990D01*
X63829425Y-70085000D01*
X62634306Y-70085000D01*
X62372077Y-69909785D01*
X61976000Y-69830999D01*
X61975995Y-69831000D01*
X61822020Y-69831000D01*
X61817162Y-69805183D01*
X61678090Y-69589059D01*
X61638061Y-69561708D01*
X61665441Y-69544090D01*
X61810431Y-69331890D01*
X61861440Y-69080000D01*
X61861440Y-68080000D01*
X61817162Y-67844683D01*
X61678090Y-67628559D01*
X61638061Y-67601208D01*
X61665441Y-67583590D01*
X61810431Y-67371390D01*
X61819015Y-67329000D01*
X64515995Y-67329000D01*
X64516000Y-67329001D01*
X64912077Y-67250215D01*
X65247856Y-67025856D01*
X65501855Y-66771856D01*
X65726215Y-66436078D01*
X65805001Y-66040000D01*
X65726215Y-65643923D01*
X65501855Y-65308145D01*
X65166077Y-65083785D01*
X64770000Y-65004999D01*
X64373922Y-65083785D01*
X64111695Y-65259000D01*
X62888306Y-65259000D01*
X62626077Y-65083785D01*
X62230000Y-65005000D01*
X61833923Y-65083785D01*
X61754972Y-65136538D01*
X61678090Y-65017059D01*
X61465890Y-64872069D01*
X61214000Y-64821060D01*
X58166000Y-64821060D01*
X57930683Y-64865338D01*
X57714559Y-65004410D01*
X57569569Y-65216610D01*
X57518560Y-65468500D01*
X57518560Y-67119500D01*
X57562838Y-67354817D01*
X57701910Y-67570941D01*
X57741939Y-67598292D01*
X57714559Y-67615910D01*
X57569569Y-67828110D01*
X57518560Y-68080000D01*
X57518560Y-69080000D01*
X57562838Y-69315317D01*
X57701910Y-69531441D01*
X57741939Y-69558792D01*
X57714559Y-69576410D01*
X57569569Y-69788610D01*
X57518560Y-70040500D01*
X57518560Y-70993000D01*
X57035440Y-70993000D01*
X57035440Y-65532000D01*
X56991162Y-65296683D01*
X56852090Y-65080559D01*
X56639890Y-64935569D01*
X56388000Y-64884560D01*
X50292000Y-64884560D01*
X50056683Y-64928838D01*
X49840559Y-65067910D01*
X49695569Y-65280110D01*
X49644560Y-65532000D01*
X49644560Y-70993000D01*
X48387000Y-70993000D01*
X48387000Y-57982386D01*
X48737630Y-58333629D01*
X49250900Y-58546757D01*
X49806661Y-58547242D01*
X49965000Y-58481818D01*
X49965000Y-62230000D01*
X50028561Y-62549541D01*
X50209566Y-62820434D01*
X50480459Y-63001439D01*
X50800000Y-63065000D01*
X55452766Y-63065000D01*
X55693201Y-63164838D01*
X56065167Y-63165162D01*
X56408943Y-63023117D01*
X56672192Y-62760327D01*
X56814838Y-62416799D01*
X56815162Y-62044833D01*
X56673117Y-61701057D01*
X56567290Y-61595046D01*
X56672192Y-61490327D01*
X56814838Y-61146799D01*
X56814839Y-61145167D01*
X57484838Y-61145167D01*
X57626883Y-61488943D01*
X57732710Y-61594954D01*
X57627808Y-61699673D01*
X57485162Y-62043201D01*
X57484838Y-62415167D01*
X57626883Y-62758943D01*
X57889673Y-63022192D01*
X58233201Y-63164838D01*
X58605167Y-63165162D01*
X58847578Y-63065000D01*
X68152766Y-63065000D01*
X68393201Y-63164838D01*
X68765167Y-63165162D01*
X69108943Y-63023117D01*
X69372192Y-62760327D01*
X69514838Y-62416799D01*
X69515162Y-62044833D01*
X69373117Y-61701057D01*
X69267290Y-61595046D01*
X69372192Y-61490327D01*
X69514838Y-61146799D01*
X69515162Y-60774833D01*
X69373117Y-60431057D01*
X69267290Y-60325046D01*
X69372192Y-60220327D01*
X69514838Y-59876799D01*
X69515162Y-59504833D01*
X69373117Y-59161057D01*
X69110327Y-58897808D01*
X68766799Y-58755162D01*
X68394833Y-58754838D01*
X68152422Y-58855000D01*
X66467234Y-58855000D01*
X66226799Y-58755162D01*
X65854833Y-58754838D01*
X65511057Y-58896883D01*
X65247808Y-59159673D01*
X65105162Y-59503201D01*
X65104838Y-59875167D01*
X65208067Y-60125000D01*
X58847234Y-60125000D01*
X58606799Y-60025162D01*
X58234833Y-60024838D01*
X57891057Y-60166883D01*
X57627808Y-60429673D01*
X57485162Y-60773201D01*
X57484838Y-61145167D01*
X56814839Y-61145167D01*
X56815162Y-60774833D01*
X56673117Y-60431057D01*
X56567290Y-60325046D01*
X56672192Y-60220327D01*
X56814838Y-59876799D01*
X56815162Y-59504833D01*
X56673117Y-59161057D01*
X56410327Y-58897808D01*
X56066799Y-58755162D01*
X55694833Y-58754838D01*
X55452422Y-58855000D01*
X53767234Y-58855000D01*
X53526799Y-58755162D01*
X53154833Y-58754838D01*
X52811057Y-58896883D01*
X52547808Y-59159673D01*
X52405162Y-59503201D01*
X52404838Y-59875167D01*
X52546883Y-60218943D01*
X52652710Y-60324954D01*
X52547808Y-60429673D01*
X52405162Y-60773201D01*
X52404838Y-61145167D01*
X52508067Y-61395000D01*
X51635000Y-61395000D01*
X51635000Y-58482022D01*
X51790900Y-58546757D01*
X52346661Y-58547242D01*
X52860303Y-58335010D01*
X53253629Y-57942370D01*
X53339949Y-57734488D01*
X53424990Y-57940303D01*
X53817630Y-58333629D01*
X54330900Y-58546757D01*
X54886661Y-58547242D01*
X55400303Y-58335010D01*
X55793629Y-57942370D01*
X56006757Y-57429100D01*
X56007242Y-56873339D01*
X55795010Y-56359697D01*
X55645000Y-56209425D01*
X55645000Y-55819062D01*
X55831441Y-55699090D01*
X55976431Y-55486890D01*
X56027440Y-55235000D01*
X56027440Y-53985000D01*
X55983162Y-53749683D01*
X55844090Y-53533559D01*
X55645000Y-53397527D01*
X55645000Y-52884062D01*
X55831441Y-52764090D01*
X55976431Y-52551890D01*
X56027440Y-52300000D01*
X56027440Y-51300000D01*
X55983162Y-51064683D01*
X55844090Y-50848559D01*
X55774289Y-50800866D01*
X55831441Y-50764090D01*
X55879134Y-50694289D01*
X55915910Y-50751441D01*
X56128110Y-50896431D01*
X56380000Y-50947440D01*
X58180000Y-50947440D01*
X58415317Y-50903162D01*
X58631441Y-50764090D01*
X58776431Y-50551890D01*
X58827440Y-50300000D01*
X58827440Y-49300000D01*
X58783162Y-49064683D01*
X58644090Y-48848559D01*
X58431890Y-48703569D01*
X58180000Y-48652560D01*
X58115000Y-48652560D01*
X58115000Y-45850000D01*
X58105054Y-45800000D01*
X58085019Y-45699273D01*
X58085162Y-45534833D01*
X57981933Y-45285000D01*
X58392560Y-45285000D01*
X58392560Y-46550000D01*
X58436838Y-46785317D01*
X58575910Y-47001441D01*
X58788110Y-47146431D01*
X59040000Y-47197440D01*
X60340000Y-47197440D01*
X60575317Y-47153162D01*
X60791441Y-47014090D01*
X60913808Y-46835000D01*
X61008808Y-46835000D01*
X61115910Y-47001441D01*
X61328110Y-47146431D01*
X61580000Y-47197440D01*
X62880000Y-47197440D01*
X63115317Y-47153162D01*
X63331441Y-47014090D01*
X63373032Y-46953220D01*
X63372758Y-47266661D01*
X63584990Y-47780303D01*
X63977630Y-48173629D01*
X64185512Y-48259949D01*
X63979697Y-48344990D01*
X63586371Y-48737630D01*
X63373243Y-49250900D01*
X63372758Y-49806661D01*
X63438182Y-49965000D01*
X61305868Y-49965000D01*
X60525000Y-49184132D01*
X60525000Y-48687234D01*
X60624838Y-48446799D01*
X60625162Y-48074833D01*
X60483117Y-47731057D01*
X60220327Y-47467808D01*
X59876799Y-47325162D01*
X59504833Y-47324838D01*
X59161057Y-47466883D01*
X58897808Y-47729673D01*
X58755162Y-48073201D01*
X58754838Y-48445167D01*
X58855000Y-48687578D01*
X58855000Y-49530000D01*
X58918561Y-49849541D01*
X59045822Y-50040000D01*
X59099566Y-50120434D01*
X60369566Y-51390434D01*
X60640459Y-51571439D01*
X60960000Y-51635000D01*
X63437978Y-51635000D01*
X63373243Y-51790900D01*
X63372758Y-52346661D01*
X63584990Y-52860303D01*
X63977630Y-53253629D01*
X64185512Y-53339949D01*
X63979697Y-53424990D01*
X63586371Y-53817630D01*
X63373243Y-54330900D01*
X63372758Y-54886661D01*
X63584990Y-55400303D01*
X63977630Y-55793629D01*
X64185512Y-55879949D01*
X63979697Y-55964990D01*
X63586371Y-56357630D01*
X63500051Y-56565512D01*
X63415010Y-56359697D01*
X63022370Y-55966371D01*
X62509100Y-55753243D01*
X61953339Y-55752758D01*
X61439697Y-55964990D01*
X61046371Y-56357630D01*
X60833243Y-56870900D01*
X60832758Y-57426661D01*
X61044990Y-57940303D01*
X61437630Y-58333629D01*
X61950900Y-58546757D01*
X62506661Y-58547242D01*
X63020303Y-58335010D01*
X63413629Y-57942370D01*
X63499949Y-57734488D01*
X63584990Y-57940303D01*
X63977630Y-58333629D01*
X64490900Y-58546757D01*
X65046661Y-58547242D01*
X65560303Y-58335010D01*
X65910925Y-57985000D01*
X68152766Y-57985000D01*
X68393201Y-58084838D01*
X68765167Y-58085162D01*
X69108943Y-57943117D01*
X69372192Y-57680327D01*
X69514838Y-57336799D01*
X69515162Y-56964833D01*
X69373117Y-56621057D01*
X69110327Y-56357808D01*
X68766799Y-56215162D01*
X68394833Y-56214838D01*
X68152422Y-56315000D01*
X65910391Y-56315000D01*
X65562370Y-55966371D01*
X65354488Y-55880051D01*
X65560303Y-55795010D01*
X65910925Y-55445000D01*
X68152766Y-55445000D01*
X68393201Y-55544838D01*
X68765167Y-55545162D01*
X69108943Y-55403117D01*
X69372192Y-55140327D01*
X69514838Y-54796799D01*
X69515162Y-54424833D01*
X69373117Y-54081057D01*
X69110327Y-53817808D01*
X68766799Y-53675162D01*
X68394833Y-53674838D01*
X68152422Y-53775000D01*
X65910391Y-53775000D01*
X65562370Y-53426371D01*
X65354488Y-53340051D01*
X65560303Y-53255010D01*
X65953629Y-52862370D01*
X66166757Y-52349100D01*
X66167242Y-51793339D01*
X66101818Y-51635000D01*
X68152766Y-51635000D01*
X68393201Y-51734838D01*
X68765167Y-51735162D01*
X69108943Y-51593117D01*
X69372192Y-51330327D01*
X69514838Y-50986799D01*
X69515162Y-50614833D01*
X69373117Y-50271057D01*
X69110327Y-50007808D01*
X68766799Y-49865162D01*
X68394833Y-49864838D01*
X68152422Y-49965000D01*
X66102022Y-49965000D01*
X66166757Y-49809100D01*
X66167242Y-49253339D01*
X65955010Y-48739697D01*
X65562370Y-48346371D01*
X65354488Y-48260051D01*
X65560303Y-48175010D01*
X65953629Y-47782370D01*
X66166757Y-47269100D01*
X66167242Y-46713339D01*
X66093554Y-46535000D01*
X66834600Y-46535000D01*
X66890933Y-46558391D01*
X66910460Y-46571439D01*
X66933292Y-46575981D01*
X67123201Y-46654838D01*
X67495167Y-46655162D01*
X67838943Y-46513117D01*
X68102192Y-46250327D01*
X68244838Y-45906799D01*
X68245162Y-45534833D01*
X68103117Y-45191057D01*
X67840327Y-44927808D01*
X67496799Y-44785162D01*
X67124833Y-44784838D01*
X66930826Y-44865000D01*
X66110326Y-44865000D01*
X66166757Y-44729100D01*
X66167242Y-44173339D01*
X65955010Y-43659697D01*
X65562370Y-43266371D01*
X65354488Y-43180051D01*
X65560303Y-43095010D01*
X65953629Y-42702370D01*
X66166757Y-42189100D01*
X66167242Y-41633339D01*
X65955010Y-41119697D01*
X65562370Y-40726371D01*
X65354488Y-40640051D01*
X65560303Y-40555010D01*
X65953629Y-40162370D01*
X66166757Y-39649100D01*
X66167242Y-39093339D01*
X65955010Y-38579697D01*
X65562370Y-38186371D01*
X65354488Y-38100051D01*
X65560303Y-38015010D01*
X65953629Y-37622370D01*
X66166757Y-37109100D01*
X66167242Y-36553339D01*
X65955010Y-36039697D01*
X65562370Y-35646371D01*
X65354488Y-35560051D01*
X65560303Y-35475010D01*
X65953629Y-35082370D01*
X66166757Y-34569100D01*
X66167242Y-34013339D01*
X65955010Y-33499697D01*
X65562370Y-33106371D01*
X65354488Y-33020051D01*
X65560303Y-32935010D01*
X65953629Y-32542370D01*
X66166757Y-32029100D01*
X66167139Y-31591444D01*
X66295000Y-31678808D01*
X66295000Y-32919450D01*
X66274999Y-33020000D01*
X66353785Y-33416077D01*
X66578144Y-33751856D01*
X66913923Y-33976215D01*
X67310000Y-34055001D01*
X67706077Y-33976215D01*
X68041856Y-33751856D01*
X68061853Y-33731858D01*
X68061856Y-33731856D01*
X68272852Y-33416077D01*
X68286215Y-33396078D01*
X68365000Y-33000000D01*
X68365000Y-31676192D01*
X68531441Y-31569090D01*
X68676431Y-31356890D01*
X68727440Y-31105000D01*
X68727440Y-29855000D01*
X68683162Y-29619683D01*
X68544090Y-29403559D01*
X68331890Y-29258569D01*
X68080000Y-29207560D01*
X66580000Y-29207560D01*
X66344683Y-29251838D01*
X66166864Y-29366261D01*
X66167242Y-28933339D01*
X65955010Y-28419697D01*
X65660994Y-28125167D01*
X70184838Y-28125167D01*
X70326883Y-28468943D01*
X70589673Y-28732192D01*
X70933201Y-28874838D01*
X71305167Y-28875162D01*
X71648943Y-28733117D01*
X71912192Y-28470327D01*
X72054838Y-28126799D01*
X72055162Y-27754833D01*
X71913117Y-27411057D01*
X71650327Y-27147808D01*
X71306799Y-27005162D01*
X70934833Y-27004838D01*
X70591057Y-27146883D01*
X70327808Y-27409673D01*
X70185162Y-27753201D01*
X70184838Y-28125167D01*
X65660994Y-28125167D01*
X65562370Y-28026371D01*
X65049100Y-27813243D01*
X64493339Y-27812758D01*
X63979697Y-28024990D01*
X63586371Y-28417630D01*
X63373243Y-28930900D01*
X63372758Y-29486661D01*
X63584990Y-30000303D01*
X63977630Y-30393629D01*
X64185512Y-30479949D01*
X63979697Y-30564990D01*
X63586371Y-30957630D01*
X63373243Y-31470900D01*
X63372758Y-32026661D01*
X63584990Y-32540303D01*
X63977630Y-32933629D01*
X64185512Y-33019949D01*
X63979697Y-33104990D01*
X63586371Y-33497630D01*
X63373243Y-34010900D01*
X63372758Y-34566661D01*
X63584990Y-35080303D01*
X63977630Y-35473629D01*
X64185512Y-35559949D01*
X63979697Y-35644990D01*
X63586371Y-36037630D01*
X63373243Y-36550900D01*
X63372758Y-37106661D01*
X63584990Y-37620303D01*
X63977630Y-38013629D01*
X64185512Y-38099949D01*
X63979697Y-38184990D01*
X63586371Y-38577630D01*
X63373243Y-39090900D01*
X63372758Y-39646661D01*
X63584990Y-40160303D01*
X63977630Y-40553629D01*
X64185512Y-40639949D01*
X63979697Y-40724990D01*
X63586371Y-41117630D01*
X63373243Y-41630900D01*
X63372970Y-41943440D01*
X63344090Y-41898559D01*
X63131890Y-41753569D01*
X62880000Y-41702560D01*
X61580000Y-41702560D01*
X61344683Y-41746838D01*
X61128559Y-41885910D01*
X60983569Y-42098110D01*
X60961007Y-42209523D01*
X60943162Y-42114683D01*
X60804090Y-41898559D01*
X60591890Y-41753569D01*
X60340000Y-41702560D01*
X59040000Y-41702560D01*
X58804683Y-41746838D01*
X58588559Y-41885910D01*
X58443569Y-42098110D01*
X58409773Y-42265000D01*
X57384574Y-42265000D01*
X57336799Y-42245162D01*
X57027440Y-42244893D01*
X57027440Y-41863428D01*
X58223428Y-40667440D01*
X59090000Y-40667440D01*
X59325317Y-40623162D01*
X59541441Y-40484090D01*
X59686431Y-40271890D01*
X59737440Y-40020000D01*
X59737440Y-38720000D01*
X59693162Y-38484683D01*
X59554090Y-38268559D01*
X59341890Y-38123569D01*
X59230477Y-38101007D01*
X59325317Y-38083162D01*
X59541441Y-37944090D01*
X59686431Y-37731890D01*
X59737440Y-37480000D01*
X59737440Y-36180000D01*
X59693162Y-35944683D01*
X59554090Y-35728559D01*
X59341890Y-35583569D01*
X59090000Y-35532560D01*
X57590000Y-35532560D01*
X57354683Y-35576838D01*
X57138559Y-35715910D01*
X57005094Y-35911242D01*
X56983162Y-35794683D01*
X56844090Y-35578559D01*
X56631890Y-35433569D01*
X56380000Y-35382560D01*
X55380000Y-35382560D01*
X55144683Y-35426838D01*
X54928559Y-35565910D01*
X54783569Y-35778110D01*
X54732560Y-36030000D01*
X54732560Y-37041692D01*
X54027440Y-36336572D01*
X54027440Y-36030000D01*
X53983162Y-35794683D01*
X53844090Y-35578559D01*
X53631890Y-35433569D01*
X53380000Y-35382560D01*
X52380000Y-35382560D01*
X52144683Y-35426838D01*
X51928559Y-35565910D01*
X51783569Y-35778110D01*
X51732560Y-36030000D01*
X51732560Y-37630000D01*
X51776838Y-37865317D01*
X51915910Y-38081441D01*
X52128110Y-38226431D01*
X52380000Y-38277440D01*
X53380000Y-38277440D01*
X53570691Y-38241559D01*
X53775000Y-38445868D01*
X53775000Y-40611352D01*
X53631890Y-40513569D01*
X53380000Y-40462560D01*
X52380000Y-40462560D01*
X52144683Y-40506838D01*
X51928559Y-40645910D01*
X51783569Y-40858110D01*
X51739648Y-41075000D01*
X50670391Y-41075000D01*
X50322370Y-40726371D01*
X50114488Y-40640051D01*
X50320303Y-40555010D01*
X50713629Y-40162370D01*
X50926757Y-39649100D01*
X50927242Y-39093339D01*
X50715010Y-38579697D01*
X50322370Y-38186371D01*
X50114488Y-38100051D01*
X50320303Y-38015010D01*
X50713629Y-37622370D01*
X50926757Y-37109100D01*
X50927242Y-36553339D01*
X50715010Y-36039697D01*
X50322370Y-35646371D01*
X50114488Y-35560051D01*
X50320303Y-35475010D01*
X50713629Y-35082370D01*
X50926757Y-34569100D01*
X50927242Y-34013339D01*
X50715010Y-33499697D01*
X50322370Y-33106371D01*
X50114488Y-33020051D01*
X50320303Y-32935010D01*
X50713629Y-32542370D01*
X50926757Y-32029100D01*
X50927242Y-31473339D01*
X50715010Y-30959697D01*
X50322370Y-30566371D01*
X50114488Y-30480051D01*
X50320303Y-30395010D01*
X50713629Y-30002370D01*
X50926757Y-29489100D01*
X50927242Y-28933339D01*
X50715010Y-28419697D01*
X50322370Y-28026371D01*
X50114488Y-27940051D01*
X50320303Y-27855010D01*
X50713629Y-27462370D01*
X50926757Y-26949100D01*
X50927242Y-26393339D01*
X50715010Y-25879697D01*
X50322370Y-25486371D01*
X49809100Y-25273243D01*
X49253339Y-25272758D01*
X48739697Y-25484990D01*
X48387000Y-25837072D01*
X48387000Y-24257000D01*
X95123000Y-24257000D01*
X95123000Y-38714889D01*
X95123000Y-38714889D01*
G37*
X95123000Y-38714889D02*
X94975715Y-38714760D01*
X94466485Y-38925169D01*
X94076539Y-39314436D01*
X93865241Y-39823298D01*
X93864760Y-40374285D01*
X94075169Y-40883515D01*
X94464436Y-41273461D01*
X94973298Y-41484759D01*
X95123000Y-41484890D01*
X95123000Y-52404889D01*
X95064833Y-52404838D01*
X94822422Y-52505000D01*
X90597234Y-52505000D01*
X90356799Y-52405162D01*
X89984833Y-52404838D01*
X89641057Y-52546883D01*
X89377808Y-52809673D01*
X89235162Y-53153201D01*
X89234838Y-53525167D01*
X89340310Y-53780430D01*
X89086799Y-53675162D01*
X88714833Y-53674838D01*
X88472422Y-53775000D01*
X87191775Y-53775000D01*
X87294838Y-53526799D01*
X87295162Y-53154833D01*
X87242743Y-53027969D01*
X87630000Y-53105001D01*
X88026077Y-53026215D01*
X88361855Y-52801855D01*
X88586215Y-52466077D01*
X88665001Y-52070000D01*
X88586215Y-51673923D01*
X88361855Y-51338144D01*
X87837440Y-50813729D01*
X87837440Y-50150000D01*
X87793162Y-49914683D01*
X87654090Y-49698559D01*
X87441890Y-49553569D01*
X87190000Y-49502560D01*
X85690000Y-49502560D01*
X85454683Y-49546838D01*
X85238559Y-49685910D01*
X85093569Y-49898110D01*
X85090919Y-49911197D01*
X84954090Y-49698559D01*
X84741890Y-49553569D01*
X84490000Y-49502560D01*
X82990000Y-49502560D01*
X82754683Y-49546838D01*
X82538559Y-49685910D01*
X82393569Y-49898110D01*
X82380023Y-49965000D01*
X79434292Y-49965000D01*
X79511439Y-49849541D01*
X79575000Y-49530000D01*
X79575000Y-47417234D01*
X79674838Y-47176799D01*
X79675162Y-46804833D01*
X79533117Y-46461057D01*
X79270327Y-46197808D01*
X78926799Y-46055162D01*
X78554833Y-46054838D01*
X78211057Y-46196883D01*
X77947808Y-46459673D01*
X77805162Y-46803201D01*
X77804838Y-47175167D01*
X77905000Y-47417578D01*
X77905000Y-47514132D01*
X77092535Y-46701667D01*
X76993117Y-46461057D01*
X76730327Y-46197808D01*
X76386799Y-46055162D01*
X76014833Y-46054838D01*
X75671057Y-46196883D01*
X75407808Y-46459673D01*
X75265162Y-46803201D01*
X75264838Y-47175167D01*
X75368067Y-47425000D01*
X71547234Y-47425000D01*
X71306799Y-47325162D01*
X70934833Y-47324838D01*
X70591057Y-47466883D01*
X70327808Y-47729673D01*
X70185162Y-48073201D01*
X70184838Y-48445167D01*
X70326883Y-48788943D01*
X70589673Y-49052192D01*
X70933201Y-49194838D01*
X71305167Y-49195162D01*
X71547578Y-49095000D01*
X75772766Y-49095000D01*
X76013201Y-49194838D01*
X76385167Y-49195162D01*
X76635000Y-49091933D01*
X76635000Y-49184132D01*
X75854132Y-49965000D01*
X71547234Y-49965000D01*
X71306799Y-49865162D01*
X70934833Y-49864838D01*
X70591057Y-50006883D01*
X70327808Y-50269673D01*
X70185162Y-50613201D01*
X70184838Y-50985167D01*
X70326883Y-51328943D01*
X70589673Y-51592192D01*
X70933201Y-51734838D01*
X71305167Y-51735162D01*
X71547578Y-51635000D01*
X75454132Y-51635000D01*
X73314132Y-53775000D01*
X71547234Y-53775000D01*
X71306799Y-53675162D01*
X70934833Y-53674838D01*
X70591057Y-53816883D01*
X70327808Y-54079673D01*
X70185162Y-54423201D01*
X70184838Y-54795167D01*
X70326883Y-55138943D01*
X70589673Y-55402192D01*
X70933201Y-55544838D01*
X71305167Y-55545162D01*
X71547578Y-55445000D01*
X72828225Y-55445000D01*
X72725162Y-55693201D01*
X72724838Y-56065167D01*
X72828067Y-56315000D01*
X71547234Y-56315000D01*
X71306799Y-56215162D01*
X70934833Y-56214838D01*
X70591057Y-56356883D01*
X70327808Y-56619673D01*
X70185162Y-56963201D01*
X70184838Y-57335167D01*
X70326883Y-57678943D01*
X70589673Y-57942192D01*
X70933201Y-58084838D01*
X71305167Y-58085162D01*
X71547578Y-57985000D01*
X72828225Y-57985000D01*
X72725162Y-58233201D01*
X72724838Y-58605167D01*
X72825000Y-58847578D01*
X72825000Y-60614132D01*
X72044132Y-61395000D01*
X71547234Y-61395000D01*
X71306799Y-61295162D01*
X70934833Y-61294838D01*
X70591057Y-61436883D01*
X70327808Y-61699673D01*
X70185162Y-62043201D01*
X70184838Y-62415167D01*
X70326883Y-62758943D01*
X70589673Y-63022192D01*
X70933201Y-63164838D01*
X71305167Y-63165162D01*
X71547578Y-63065000D01*
X72390000Y-63065000D01*
X72709541Y-63001439D01*
X72980434Y-62820434D01*
X74250434Y-61550434D01*
X74291521Y-61488943D01*
X74431439Y-61279541D01*
X74495000Y-60960000D01*
X74495000Y-58847234D01*
X74594838Y-58606799D01*
X74595162Y-58234833D01*
X74491933Y-57985000D01*
X74502766Y-57985000D01*
X74743201Y-58084838D01*
X75115167Y-58085162D01*
X75357578Y-57985000D01*
X77470000Y-57985000D01*
X77789541Y-57921439D01*
X78060434Y-57740434D01*
X79330434Y-56470434D01*
X79371521Y-56408943D01*
X79511439Y-56199541D01*
X79575000Y-55880000D01*
X79575000Y-54955868D01*
X80355868Y-54175000D01*
X80448225Y-54175000D01*
X80345162Y-54423201D01*
X80344838Y-54795167D01*
X80486883Y-55138943D01*
X80749673Y-55402192D01*
X81093201Y-55544838D01*
X81465167Y-55545162D01*
X81707578Y-55445000D01*
X84662766Y-55445000D01*
X84903201Y-55544838D01*
X85275167Y-55545162D01*
X85618943Y-55403117D01*
X85800964Y-55221413D01*
X86040459Y-55381439D01*
X86360000Y-55445000D01*
X88472766Y-55445000D01*
X88713201Y-55544838D01*
X89085167Y-55545162D01*
X89428943Y-55403117D01*
X89692192Y-55140327D01*
X89834838Y-54796799D01*
X89835162Y-54424833D01*
X89729690Y-54169570D01*
X89983201Y-54274838D01*
X90355167Y-54275162D01*
X90597578Y-54175000D01*
X94822766Y-54175000D01*
X95063201Y-54274838D01*
X95123000Y-54274890D01*
X95123000Y-61420262D01*
X94930459Y-61458561D01*
X94659566Y-61639566D01*
X94478561Y-61910459D01*
X94415000Y-62230000D01*
X94415000Y-66040000D01*
X94478561Y-66359541D01*
X94659566Y-66630434D01*
X94930459Y-66811439D01*
X95123000Y-66849738D01*
X95123000Y-70993000D01*
X77790712Y-70993000D01*
X84248711Y-64535000D01*
X85090000Y-64535000D01*
X85486077Y-64456215D01*
X85821856Y-64231856D01*
X86046215Y-63896077D01*
X86125000Y-63500000D01*
X86046215Y-63103923D01*
X86020208Y-63065000D01*
X90170000Y-63065000D01*
X90489541Y-63001439D01*
X90760434Y-62820434D01*
X92030434Y-61550434D01*
X92071521Y-61488943D01*
X92211439Y-61279541D01*
X92275000Y-60960000D01*
X92275000Y-60117234D01*
X92374838Y-59876799D01*
X92375162Y-59504833D01*
X92233117Y-59161057D01*
X91970327Y-58897808D01*
X91626799Y-58755162D01*
X91254833Y-58754838D01*
X90911057Y-58896883D01*
X90647808Y-59159673D01*
X90505162Y-59503201D01*
X90504838Y-59875167D01*
X90605000Y-60117578D01*
X90605000Y-60614132D01*
X89824132Y-61395000D01*
X89044027Y-61395000D01*
X89077440Y-61230000D01*
X89077440Y-59230000D01*
X89033162Y-58994683D01*
X88894090Y-58778559D01*
X88681890Y-58633569D01*
X88430000Y-58582560D01*
X86830000Y-58582560D01*
X86594683Y-58626838D01*
X86378559Y-58765910D01*
X86233569Y-58978110D01*
X86189648Y-59195000D01*
X86058712Y-59195000D01*
X85821856Y-58958144D01*
X85486077Y-58733785D01*
X85090000Y-58654999D01*
X84693923Y-58733785D01*
X84358144Y-58958144D01*
X84133785Y-59293923D01*
X84054999Y-59690000D01*
X84133785Y-60086077D01*
X84358144Y-60421856D01*
X84898142Y-60961853D01*
X84898144Y-60961856D01*
X85099429Y-61096349D01*
X85233922Y-61186215D01*
X85630000Y-61265000D01*
X86189146Y-61265000D01*
X86213607Y-61395000D01*
X77897234Y-61395000D01*
X77656799Y-61295162D01*
X77284833Y-61294838D01*
X76941057Y-61436883D01*
X76677808Y-61699673D01*
X76535162Y-62043201D01*
X76534838Y-62415167D01*
X76676883Y-62758943D01*
X76939673Y-63022192D01*
X77283201Y-63164838D01*
X77655167Y-63165162D01*
X77897578Y-63065000D01*
X82791289Y-63065000D01*
X76037998Y-69818290D01*
X75809100Y-69723243D01*
X75253339Y-69722758D01*
X75071573Y-69797862D01*
X70581856Y-65308144D01*
X70246077Y-65083785D01*
X69850000Y-65004999D01*
X69849995Y-65005000D01*
X68250740Y-65005000D01*
X68102370Y-64856371D01*
X67589100Y-64643243D01*
X67033339Y-64642758D01*
X66519697Y-64854990D01*
X66126371Y-65247630D01*
X65913243Y-65760900D01*
X65912758Y-66316661D01*
X66124990Y-66830303D01*
X66517630Y-67223629D01*
X67030900Y-67436757D01*
X67586661Y-67437242D01*
X68100303Y-67225010D01*
X68250575Y-67075000D01*
X69421288Y-67075000D01*
X72390393Y-70044104D01*
X72349425Y-70085000D01*
X71990740Y-70085000D01*
X71842370Y-69936371D01*
X71329100Y-69723243D01*
X70773339Y-69722758D01*
X70259697Y-69934990D01*
X69866371Y-70327630D01*
X69653243Y-70840900D01*
X69653110Y-70993000D01*
X66167111Y-70993000D01*
X66167242Y-70843339D01*
X65955010Y-70329697D01*
X65562370Y-69936371D01*
X65049100Y-69723243D01*
X64493339Y-69722758D01*
X63979697Y-69934990D01*
X63829425Y-70085000D01*
X62634306Y-70085000D01*
X62372077Y-69909785D01*
X61976000Y-69830999D01*
X61975995Y-69831000D01*
X61822020Y-69831000D01*
X61817162Y-69805183D01*
X61678090Y-69589059D01*
X61638061Y-69561708D01*
X61665441Y-69544090D01*
X61810431Y-69331890D01*
X61861440Y-69080000D01*
X61861440Y-68080000D01*
X61817162Y-67844683D01*
X61678090Y-67628559D01*
X61638061Y-67601208D01*
X61665441Y-67583590D01*
X61810431Y-67371390D01*
X61819015Y-67329000D01*
X64515995Y-67329000D01*
X64516000Y-67329001D01*
X64912077Y-67250215D01*
X65247856Y-67025856D01*
X65501855Y-66771856D01*
X65726215Y-66436078D01*
X65805001Y-66040000D01*
X65726215Y-65643923D01*
X65501855Y-65308145D01*
X65166077Y-65083785D01*
X64770000Y-65004999D01*
X64373922Y-65083785D01*
X64111695Y-65259000D01*
X62888306Y-65259000D01*
X62626077Y-65083785D01*
X62230000Y-65005000D01*
X61833923Y-65083785D01*
X61754972Y-65136538D01*
X61678090Y-65017059D01*
X61465890Y-64872069D01*
X61214000Y-64821060D01*
X58166000Y-64821060D01*
X57930683Y-64865338D01*
X57714559Y-65004410D01*
X57569569Y-65216610D01*
X57518560Y-65468500D01*
X57518560Y-67119500D01*
X57562838Y-67354817D01*
X57701910Y-67570941D01*
X57741939Y-67598292D01*
X57714559Y-67615910D01*
X57569569Y-67828110D01*
X57518560Y-68080000D01*
X57518560Y-69080000D01*
X57562838Y-69315317D01*
X57701910Y-69531441D01*
X57741939Y-69558792D01*
X57714559Y-69576410D01*
X57569569Y-69788610D01*
X57518560Y-70040500D01*
X57518560Y-70993000D01*
X57035440Y-70993000D01*
X57035440Y-65532000D01*
X56991162Y-65296683D01*
X56852090Y-65080559D01*
X56639890Y-64935569D01*
X56388000Y-64884560D01*
X50292000Y-64884560D01*
X50056683Y-64928838D01*
X49840559Y-65067910D01*
X49695569Y-65280110D01*
X49644560Y-65532000D01*
X49644560Y-70993000D01*
X48387000Y-70993000D01*
X48387000Y-57982386D01*
X48737630Y-58333629D01*
X49250900Y-58546757D01*
X49806661Y-58547242D01*
X49965000Y-58481818D01*
X49965000Y-62230000D01*
X50028561Y-62549541D01*
X50209566Y-62820434D01*
X50480459Y-63001439D01*
X50800000Y-63065000D01*
X55452766Y-63065000D01*
X55693201Y-63164838D01*
X56065167Y-63165162D01*
X56408943Y-63023117D01*
X56672192Y-62760327D01*
X56814838Y-62416799D01*
X56815162Y-62044833D01*
X56673117Y-61701057D01*
X56567290Y-61595046D01*
X56672192Y-61490327D01*
X56814838Y-61146799D01*
X56814839Y-61145167D01*
X57484838Y-61145167D01*
X57626883Y-61488943D01*
X57732710Y-61594954D01*
X57627808Y-61699673D01*
X57485162Y-62043201D01*
X57484838Y-62415167D01*
X57626883Y-62758943D01*
X57889673Y-63022192D01*
X58233201Y-63164838D01*
X58605167Y-63165162D01*
X58847578Y-63065000D01*
X68152766Y-63065000D01*
X68393201Y-63164838D01*
X68765167Y-63165162D01*
X69108943Y-63023117D01*
X69372192Y-62760327D01*
X69514838Y-62416799D01*
X69515162Y-62044833D01*
X69373117Y-61701057D01*
X69267290Y-61595046D01*
X69372192Y-61490327D01*
X69514838Y-61146799D01*
X69515162Y-60774833D01*
X69373117Y-60431057D01*
X69267290Y-60325046D01*
X69372192Y-60220327D01*
X69514838Y-59876799D01*
X69515162Y-59504833D01*
X69373117Y-59161057D01*
X69110327Y-58897808D01*
X68766799Y-58755162D01*
X68394833Y-58754838D01*
X68152422Y-58855000D01*
X66467234Y-58855000D01*
X66226799Y-58755162D01*
X65854833Y-58754838D01*
X65511057Y-58896883D01*
X65247808Y-59159673D01*
X65105162Y-59503201D01*
X65104838Y-59875167D01*
X65208067Y-60125000D01*
X58847234Y-60125000D01*
X58606799Y-60025162D01*
X58234833Y-60024838D01*
X57891057Y-60166883D01*
X57627808Y-60429673D01*
X57485162Y-60773201D01*
X57484838Y-61145167D01*
X56814839Y-61145167D01*
X56815162Y-60774833D01*
X56673117Y-60431057D01*
X56567290Y-60325046D01*
X56672192Y-60220327D01*
X56814838Y-59876799D01*
X56815162Y-59504833D01*
X56673117Y-59161057D01*
X56410327Y-58897808D01*
X56066799Y-58755162D01*
X55694833Y-58754838D01*
X55452422Y-58855000D01*
X53767234Y-58855000D01*
X53526799Y-58755162D01*
X53154833Y-58754838D01*
X52811057Y-58896883D01*
X52547808Y-59159673D01*
X52405162Y-59503201D01*
X52404838Y-59875167D01*
X52546883Y-60218943D01*
X52652710Y-60324954D01*
X52547808Y-60429673D01*
X52405162Y-60773201D01*
X52404838Y-61145167D01*
X52508067Y-61395000D01*
X51635000Y-61395000D01*
X51635000Y-58482022D01*
X51790900Y-58546757D01*
X52346661Y-58547242D01*
X52860303Y-58335010D01*
X53253629Y-57942370D01*
X53339949Y-57734488D01*
X53424990Y-57940303D01*
X53817630Y-58333629D01*
X54330900Y-58546757D01*
X54886661Y-58547242D01*
X55400303Y-58335010D01*
X55793629Y-57942370D01*
X56006757Y-57429100D01*
X56007242Y-56873339D01*
X55795010Y-56359697D01*
X55645000Y-56209425D01*
X55645000Y-55819062D01*
X55831441Y-55699090D01*
X55976431Y-55486890D01*
X56027440Y-55235000D01*
X56027440Y-53985000D01*
X55983162Y-53749683D01*
X55844090Y-53533559D01*
X55645000Y-53397527D01*
X55645000Y-52884062D01*
X55831441Y-52764090D01*
X55976431Y-52551890D01*
X56027440Y-52300000D01*
X56027440Y-51300000D01*
X55983162Y-51064683D01*
X55844090Y-50848559D01*
X55774289Y-50800866D01*
X55831441Y-50764090D01*
X55879134Y-50694289D01*
X55915910Y-50751441D01*
X56128110Y-50896431D01*
X56380000Y-50947440D01*
X58180000Y-50947440D01*
X58415317Y-50903162D01*
X58631441Y-50764090D01*
X58776431Y-50551890D01*
X58827440Y-50300000D01*
X58827440Y-49300000D01*
X58783162Y-49064683D01*
X58644090Y-48848559D01*
X58431890Y-48703569D01*
X58180000Y-48652560D01*
X58115000Y-48652560D01*
X58115000Y-45850000D01*
X58105054Y-45800000D01*
X58085019Y-45699273D01*
X58085162Y-45534833D01*
X57981933Y-45285000D01*
X58392560Y-45285000D01*
X58392560Y-46550000D01*
X58436838Y-46785317D01*
X58575910Y-47001441D01*
X58788110Y-47146431D01*
X59040000Y-47197440D01*
X60340000Y-47197440D01*
X60575317Y-47153162D01*
X60791441Y-47014090D01*
X60913808Y-46835000D01*
X61008808Y-46835000D01*
X61115910Y-47001441D01*
X61328110Y-47146431D01*
X61580000Y-47197440D01*
X62880000Y-47197440D01*
X63115317Y-47153162D01*
X63331441Y-47014090D01*
X63373032Y-46953220D01*
X63372758Y-47266661D01*
X63584990Y-47780303D01*
X63977630Y-48173629D01*
X64185512Y-48259949D01*
X63979697Y-48344990D01*
X63586371Y-48737630D01*
X63373243Y-49250900D01*
X63372758Y-49806661D01*
X63438182Y-49965000D01*
X61305868Y-49965000D01*
X60525000Y-49184132D01*
X60525000Y-48687234D01*
X60624838Y-48446799D01*
X60625162Y-48074833D01*
X60483117Y-47731057D01*
X60220327Y-47467808D01*
X59876799Y-47325162D01*
X59504833Y-47324838D01*
X59161057Y-47466883D01*
X58897808Y-47729673D01*
X58755162Y-48073201D01*
X58754838Y-48445167D01*
X58855000Y-48687578D01*
X58855000Y-49530000D01*
X58918561Y-49849541D01*
X59045822Y-50040000D01*
X59099566Y-50120434D01*
X60369566Y-51390434D01*
X60640459Y-51571439D01*
X60960000Y-51635000D01*
X63437978Y-51635000D01*
X63373243Y-51790900D01*
X63372758Y-52346661D01*
X63584990Y-52860303D01*
X63977630Y-53253629D01*
X64185512Y-53339949D01*
X63979697Y-53424990D01*
X63586371Y-53817630D01*
X63373243Y-54330900D01*
X63372758Y-54886661D01*
X63584990Y-55400303D01*
X63977630Y-55793629D01*
X64185512Y-55879949D01*
X63979697Y-55964990D01*
X63586371Y-56357630D01*
X63500051Y-56565512D01*
X63415010Y-56359697D01*
X63022370Y-55966371D01*
X62509100Y-55753243D01*
X61953339Y-55752758D01*
X61439697Y-55964990D01*
X61046371Y-56357630D01*
X60833243Y-56870900D01*
X60832758Y-57426661D01*
X61044990Y-57940303D01*
X61437630Y-58333629D01*
X61950900Y-58546757D01*
X62506661Y-58547242D01*
X63020303Y-58335010D01*
X63413629Y-57942370D01*
X63499949Y-57734488D01*
X63584990Y-57940303D01*
X63977630Y-58333629D01*
X64490900Y-58546757D01*
X65046661Y-58547242D01*
X65560303Y-58335010D01*
X65910925Y-57985000D01*
X68152766Y-57985000D01*
X68393201Y-58084838D01*
X68765167Y-58085162D01*
X69108943Y-57943117D01*
X69372192Y-57680327D01*
X69514838Y-57336799D01*
X69515162Y-56964833D01*
X69373117Y-56621057D01*
X69110327Y-56357808D01*
X68766799Y-56215162D01*
X68394833Y-56214838D01*
X68152422Y-56315000D01*
X65910391Y-56315000D01*
X65562370Y-55966371D01*
X65354488Y-55880051D01*
X65560303Y-55795010D01*
X65910925Y-55445000D01*
X68152766Y-55445000D01*
X68393201Y-55544838D01*
X68765167Y-55545162D01*
X69108943Y-55403117D01*
X69372192Y-55140327D01*
X69514838Y-54796799D01*
X69515162Y-54424833D01*
X69373117Y-54081057D01*
X69110327Y-53817808D01*
X68766799Y-53675162D01*
X68394833Y-53674838D01*
X68152422Y-53775000D01*
X65910391Y-53775000D01*
X65562370Y-53426371D01*
X65354488Y-53340051D01*
X65560303Y-53255010D01*
X65953629Y-52862370D01*
X66166757Y-52349100D01*
X66167242Y-51793339D01*
X66101818Y-51635000D01*
X68152766Y-51635000D01*
X68393201Y-51734838D01*
X68765167Y-51735162D01*
X69108943Y-51593117D01*
X69372192Y-51330327D01*
X69514838Y-50986799D01*
X69515162Y-50614833D01*
X69373117Y-50271057D01*
X69110327Y-50007808D01*
X68766799Y-49865162D01*
X68394833Y-49864838D01*
X68152422Y-49965000D01*
X66102022Y-49965000D01*
X66166757Y-49809100D01*
X66167242Y-49253339D01*
X65955010Y-48739697D01*
X65562370Y-48346371D01*
X65354488Y-48260051D01*
X65560303Y-48175010D01*
X65953629Y-47782370D01*
X66166757Y-47269100D01*
X66167242Y-46713339D01*
X66093554Y-46535000D01*
X66834600Y-46535000D01*
X66890933Y-46558391D01*
X66910460Y-46571439D01*
X66933292Y-46575981D01*
X67123201Y-46654838D01*
X67495167Y-46655162D01*
X67838943Y-46513117D01*
X68102192Y-46250327D01*
X68244838Y-45906799D01*
X68245162Y-45534833D01*
X68103117Y-45191057D01*
X67840327Y-44927808D01*
X67496799Y-44785162D01*
X67124833Y-44784838D01*
X66930826Y-44865000D01*
X66110326Y-44865000D01*
X66166757Y-44729100D01*
X66167242Y-44173339D01*
X65955010Y-43659697D01*
X65562370Y-43266371D01*
X65354488Y-43180051D01*
X65560303Y-43095010D01*
X65953629Y-42702370D01*
X66166757Y-42189100D01*
X66167242Y-41633339D01*
X65955010Y-41119697D01*
X65562370Y-40726371D01*
X65354488Y-40640051D01*
X65560303Y-40555010D01*
X65953629Y-40162370D01*
X66166757Y-39649100D01*
X66167242Y-39093339D01*
X65955010Y-38579697D01*
X65562370Y-38186371D01*
X65354488Y-38100051D01*
X65560303Y-38015010D01*
X65953629Y-37622370D01*
X66166757Y-37109100D01*
X66167242Y-36553339D01*
X65955010Y-36039697D01*
X65562370Y-35646371D01*
X65354488Y-35560051D01*
X65560303Y-35475010D01*
X65953629Y-35082370D01*
X66166757Y-34569100D01*
X66167242Y-34013339D01*
X65955010Y-33499697D01*
X65562370Y-33106371D01*
X65354488Y-33020051D01*
X65560303Y-32935010D01*
X65953629Y-32542370D01*
X66166757Y-32029100D01*
X66167139Y-31591444D01*
X66295000Y-31678808D01*
X66295000Y-32919450D01*
X66274999Y-33020000D01*
X66353785Y-33416077D01*
X66578144Y-33751856D01*
X66913923Y-33976215D01*
X67310000Y-34055001D01*
X67706077Y-33976215D01*
X68041856Y-33751856D01*
X68061853Y-33731858D01*
X68061856Y-33731856D01*
X68272852Y-33416077D01*
X68286215Y-33396078D01*
X68365000Y-33000000D01*
X68365000Y-31676192D01*
X68531441Y-31569090D01*
X68676431Y-31356890D01*
X68727440Y-31105000D01*
X68727440Y-29855000D01*
X68683162Y-29619683D01*
X68544090Y-29403559D01*
X68331890Y-29258569D01*
X68080000Y-29207560D01*
X66580000Y-29207560D01*
X66344683Y-29251838D01*
X66166864Y-29366261D01*
X66167242Y-28933339D01*
X65955010Y-28419697D01*
X65660994Y-28125167D01*
X70184838Y-28125167D01*
X70326883Y-28468943D01*
X70589673Y-28732192D01*
X70933201Y-28874838D01*
X71305167Y-28875162D01*
X71648943Y-28733117D01*
X71912192Y-28470327D01*
X72054838Y-28126799D01*
X72055162Y-27754833D01*
X71913117Y-27411057D01*
X71650327Y-27147808D01*
X71306799Y-27005162D01*
X70934833Y-27004838D01*
X70591057Y-27146883D01*
X70327808Y-27409673D01*
X70185162Y-27753201D01*
X70184838Y-28125167D01*
X65660994Y-28125167D01*
X65562370Y-28026371D01*
X65049100Y-27813243D01*
X64493339Y-27812758D01*
X63979697Y-28024990D01*
X63586371Y-28417630D01*
X63373243Y-28930900D01*
X63372758Y-29486661D01*
X63584990Y-30000303D01*
X63977630Y-30393629D01*
X64185512Y-30479949D01*
X63979697Y-30564990D01*
X63586371Y-30957630D01*
X63373243Y-31470900D01*
X63372758Y-32026661D01*
X63584990Y-32540303D01*
X63977630Y-32933629D01*
X64185512Y-33019949D01*
X63979697Y-33104990D01*
X63586371Y-33497630D01*
X63373243Y-34010900D01*
X63372758Y-34566661D01*
X63584990Y-35080303D01*
X63977630Y-35473629D01*
X64185512Y-35559949D01*
X63979697Y-35644990D01*
X63586371Y-36037630D01*
X63373243Y-36550900D01*
X63372758Y-37106661D01*
X63584990Y-37620303D01*
X63977630Y-38013629D01*
X64185512Y-38099949D01*
X63979697Y-38184990D01*
X63586371Y-38577630D01*
X63373243Y-39090900D01*
X63372758Y-39646661D01*
X63584990Y-40160303D01*
X63977630Y-40553629D01*
X64185512Y-40639949D01*
X63979697Y-40724990D01*
X63586371Y-41117630D01*
X63373243Y-41630900D01*
X63372970Y-41943440D01*
X63344090Y-41898559D01*
X63131890Y-41753569D01*
X62880000Y-41702560D01*
X61580000Y-41702560D01*
X61344683Y-41746838D01*
X61128559Y-41885910D01*
X60983569Y-42098110D01*
X60961007Y-42209523D01*
X60943162Y-42114683D01*
X60804090Y-41898559D01*
X60591890Y-41753569D01*
X60340000Y-41702560D01*
X59040000Y-41702560D01*
X58804683Y-41746838D01*
X58588559Y-41885910D01*
X58443569Y-42098110D01*
X58409773Y-42265000D01*
X57384574Y-42265000D01*
X57336799Y-42245162D01*
X57027440Y-42244893D01*
X57027440Y-41863428D01*
X58223428Y-40667440D01*
X59090000Y-40667440D01*
X59325317Y-40623162D01*
X59541441Y-40484090D01*
X59686431Y-40271890D01*
X59737440Y-40020000D01*
X59737440Y-38720000D01*
X59693162Y-38484683D01*
X59554090Y-38268559D01*
X59341890Y-38123569D01*
X59230477Y-38101007D01*
X59325317Y-38083162D01*
X59541441Y-37944090D01*
X59686431Y-37731890D01*
X59737440Y-37480000D01*
X59737440Y-36180000D01*
X59693162Y-35944683D01*
X59554090Y-35728559D01*
X59341890Y-35583569D01*
X59090000Y-35532560D01*
X57590000Y-35532560D01*
X57354683Y-35576838D01*
X57138559Y-35715910D01*
X57005094Y-35911242D01*
X56983162Y-35794683D01*
X56844090Y-35578559D01*
X56631890Y-35433569D01*
X56380000Y-35382560D01*
X55380000Y-35382560D01*
X55144683Y-35426838D01*
X54928559Y-35565910D01*
X54783569Y-35778110D01*
X54732560Y-36030000D01*
X54732560Y-37041692D01*
X54027440Y-36336572D01*
X54027440Y-36030000D01*
X53983162Y-35794683D01*
X53844090Y-35578559D01*
X53631890Y-35433569D01*
X53380000Y-35382560D01*
X52380000Y-35382560D01*
X52144683Y-35426838D01*
X51928559Y-35565910D01*
X51783569Y-35778110D01*
X51732560Y-36030000D01*
X51732560Y-37630000D01*
X51776838Y-37865317D01*
X51915910Y-38081441D01*
X52128110Y-38226431D01*
X52380000Y-38277440D01*
X53380000Y-38277440D01*
X53570691Y-38241559D01*
X53775000Y-38445868D01*
X53775000Y-40611352D01*
X53631890Y-40513569D01*
X53380000Y-40462560D01*
X52380000Y-40462560D01*
X52144683Y-40506838D01*
X51928559Y-40645910D01*
X51783569Y-40858110D01*
X51739648Y-41075000D01*
X50670391Y-41075000D01*
X50322370Y-40726371D01*
X50114488Y-40640051D01*
X50320303Y-40555010D01*
X50713629Y-40162370D01*
X50926757Y-39649100D01*
X50927242Y-39093339D01*
X50715010Y-38579697D01*
X50322370Y-38186371D01*
X50114488Y-38100051D01*
X50320303Y-38015010D01*
X50713629Y-37622370D01*
X50926757Y-37109100D01*
X50927242Y-36553339D01*
X50715010Y-36039697D01*
X50322370Y-35646371D01*
X50114488Y-35560051D01*
X50320303Y-35475010D01*
X50713629Y-35082370D01*
X50926757Y-34569100D01*
X50927242Y-34013339D01*
X50715010Y-33499697D01*
X50322370Y-33106371D01*
X50114488Y-33020051D01*
X50320303Y-32935010D01*
X50713629Y-32542370D01*
X50926757Y-32029100D01*
X50927242Y-31473339D01*
X50715010Y-30959697D01*
X50322370Y-30566371D01*
X50114488Y-30480051D01*
X50320303Y-30395010D01*
X50713629Y-30002370D01*
X50926757Y-29489100D01*
X50927242Y-28933339D01*
X50715010Y-28419697D01*
X50322370Y-28026371D01*
X50114488Y-27940051D01*
X50320303Y-27855010D01*
X50713629Y-27462370D01*
X50926757Y-26949100D01*
X50927242Y-26393339D01*
X50715010Y-25879697D01*
X50322370Y-25486371D01*
X49809100Y-25273243D01*
X49253339Y-25272758D01*
X48739697Y-25484990D01*
X48387000Y-25837072D01*
X48387000Y-24257000D01*
X95123000Y-24257000D01*
X95123000Y-38714889D01*
M02*
