G04 #@! TF.FileFunction,Legend,Top*
%FSLAX46Y46*%
G04 Gerber Fmt 4.6, Leading zero omitted, Abs format (unit mm)*
G04 Created by KiCad (PCBNEW 4.0.2-stable) date Saturday, 16 July 2016 'pmt' 14:41:27*
%MOMM*%
G01*
G04 APERTURE LIST*
%ADD10C,0.100000*%
%ADD11C,0.175000*%
%ADD12C,0.300000*%
%ADD13C,0.150000*%
G04 APERTURE END LIST*
D10*
D11*
X72793333Y-69466667D02*
X73226666Y-69466667D01*
X72993333Y-69733333D01*
X73093333Y-69733333D01*
X73160000Y-69766667D01*
X73193333Y-69800000D01*
X73226666Y-69866667D01*
X73226666Y-70033333D01*
X73193333Y-70100000D01*
X73160000Y-70133333D01*
X73093333Y-70166667D01*
X72893333Y-70166667D01*
X72826666Y-70133333D01*
X72793333Y-70100000D01*
X73426667Y-69466667D02*
X73660000Y-70166667D01*
X73893333Y-69466667D01*
X74060000Y-69466667D02*
X74493333Y-69466667D01*
X74260000Y-69733333D01*
X74360000Y-69733333D01*
X74426667Y-69766667D01*
X74460000Y-69800000D01*
X74493333Y-69866667D01*
X74493333Y-70033333D01*
X74460000Y-70100000D01*
X74426667Y-70133333D01*
X74360000Y-70166667D01*
X74160000Y-70166667D01*
X74093333Y-70133333D01*
X74060000Y-70100000D01*
X67713333Y-64386667D02*
X68146666Y-64386667D01*
X67913333Y-64653333D01*
X68013333Y-64653333D01*
X68080000Y-64686667D01*
X68113333Y-64720000D01*
X68146666Y-64786667D01*
X68146666Y-64953333D01*
X68113333Y-65020000D01*
X68080000Y-65053333D01*
X68013333Y-65086667D01*
X67813333Y-65086667D01*
X67746666Y-65053333D01*
X67713333Y-65020000D01*
X68346667Y-64386667D02*
X68580000Y-65086667D01*
X68813333Y-64386667D01*
X68980000Y-64386667D02*
X69413333Y-64386667D01*
X69180000Y-64653333D01*
X69280000Y-64653333D01*
X69346667Y-64686667D01*
X69380000Y-64720000D01*
X69413333Y-64786667D01*
X69413333Y-64953333D01*
X69380000Y-65020000D01*
X69346667Y-65053333D01*
X69280000Y-65086667D01*
X69080000Y-65086667D01*
X69013333Y-65053333D01*
X68980000Y-65020000D01*
X76936667Y-64420000D02*
X76870001Y-64386667D01*
X76770001Y-64386667D01*
X76670001Y-64420000D01*
X76603334Y-64486667D01*
X76570001Y-64553333D01*
X76536667Y-64686667D01*
X76536667Y-64786667D01*
X76570001Y-64920000D01*
X76603334Y-64986667D01*
X76670001Y-65053333D01*
X76770001Y-65086667D01*
X76836667Y-65086667D01*
X76936667Y-65053333D01*
X76970001Y-65020000D01*
X76970001Y-64786667D01*
X76836667Y-64786667D01*
X77270001Y-65086667D02*
X77270001Y-64386667D01*
X77670001Y-65086667D01*
X77670001Y-64386667D01*
X78003334Y-65086667D02*
X78003334Y-64386667D01*
X78170000Y-64386667D01*
X78270000Y-64420000D01*
X78336667Y-64486667D01*
X78370000Y-64553333D01*
X78403334Y-64686667D01*
X78403334Y-64786667D01*
X78370000Y-64920000D01*
X78336667Y-64986667D01*
X78270000Y-65053333D01*
X78170000Y-65086667D01*
X78003334Y-65086667D01*
X47680001Y-63450000D02*
X47780001Y-63483333D01*
X47813334Y-63516667D01*
X47846668Y-63583333D01*
X47846668Y-63683333D01*
X47813334Y-63750000D01*
X47780001Y-63783333D01*
X47713334Y-63816667D01*
X47446668Y-63816667D01*
X47446668Y-63116667D01*
X47680001Y-63116667D01*
X47746668Y-63150000D01*
X47780001Y-63183333D01*
X47813334Y-63250000D01*
X47813334Y-63316667D01*
X47780001Y-63383333D01*
X47746668Y-63416667D01*
X47680001Y-63450000D01*
X47446668Y-63450000D01*
X48113334Y-63616667D02*
X48446668Y-63616667D01*
X48046668Y-63816667D02*
X48280001Y-63116667D01*
X48513334Y-63816667D01*
X48646668Y-63116667D02*
X49046668Y-63116667D01*
X48846668Y-63816667D02*
X48846668Y-63116667D01*
X50180000Y-63150000D02*
X50113334Y-63116667D01*
X50013334Y-63116667D01*
X49913334Y-63150000D01*
X49846667Y-63216667D01*
X49813334Y-63283333D01*
X49780000Y-63416667D01*
X49780000Y-63516667D01*
X49813334Y-63650000D01*
X49846667Y-63716667D01*
X49913334Y-63783333D01*
X50013334Y-63816667D01*
X50080000Y-63816667D01*
X50180000Y-63783333D01*
X50213334Y-63750000D01*
X50213334Y-63516667D01*
X50080000Y-63516667D01*
X50513334Y-63816667D02*
X50513334Y-63116667D01*
X50913334Y-63816667D01*
X50913334Y-63116667D01*
X51246667Y-63816667D02*
X51246667Y-63116667D01*
X51413333Y-63116667D01*
X51513333Y-63150000D01*
X51580000Y-63216667D01*
X51613333Y-63283333D01*
X51646667Y-63416667D01*
X51646667Y-63516667D01*
X51613333Y-63650000D01*
X51580000Y-63716667D01*
X51513333Y-63783333D01*
X51413333Y-63816667D01*
X51246667Y-63816667D01*
X65993334Y-71070000D02*
X66093334Y-71103333D01*
X66126667Y-71136667D01*
X66160001Y-71203333D01*
X66160001Y-71303333D01*
X66126667Y-71370000D01*
X66093334Y-71403333D01*
X66026667Y-71436667D01*
X65760001Y-71436667D01*
X65760001Y-70736667D01*
X65993334Y-70736667D01*
X66060001Y-70770000D01*
X66093334Y-70803333D01*
X66126667Y-70870000D01*
X66126667Y-70936667D01*
X66093334Y-71003333D01*
X66060001Y-71036667D01*
X65993334Y-71070000D01*
X65760001Y-71070000D01*
X66426667Y-71236667D02*
X66760001Y-71236667D01*
X66360001Y-71436667D02*
X66593334Y-70736667D01*
X66826667Y-71436667D01*
X66960001Y-70736667D02*
X67360001Y-70736667D01*
X67160001Y-71436667D02*
X67160001Y-70736667D01*
X68126667Y-71436667D02*
X68126667Y-70736667D01*
X68460000Y-71436667D02*
X68460000Y-70736667D01*
X68860000Y-71436667D01*
X68860000Y-70736667D01*
D12*
X62770000Y-70528571D02*
X62770000Y-69028571D01*
X63341428Y-69028571D01*
X63484286Y-69100000D01*
X63555714Y-69171429D01*
X63627143Y-69314286D01*
X63627143Y-69528571D01*
X63555714Y-69671429D01*
X63484286Y-69742857D01*
X63341428Y-69814286D01*
X62770000Y-69814286D01*
X64127143Y-69028571D02*
X64484286Y-70528571D01*
X64770000Y-69457143D01*
X65055714Y-70528571D01*
X65412857Y-69028571D01*
X66841429Y-70528571D02*
X66341429Y-69814286D01*
X65984286Y-70528571D02*
X65984286Y-69028571D01*
X66555714Y-69028571D01*
X66698572Y-69100000D01*
X66770000Y-69171429D01*
X66841429Y-69314286D01*
X66841429Y-69528571D01*
X66770000Y-69671429D01*
X66698572Y-69742857D01*
X66555714Y-69814286D01*
X65984286Y-69814286D01*
D13*
X49030000Y-71970000D02*
X50030000Y-71970000D01*
X50030000Y-70270000D02*
X49030000Y-70270000D01*
X49030000Y-66890000D02*
X50030000Y-66890000D01*
X50030000Y-65190000D02*
X49030000Y-65190000D01*
X93480000Y-56080000D02*
X92630000Y-56730000D01*
X81530000Y-56080000D02*
X83630000Y-57180000D01*
X94480000Y-58930000D02*
X94480000Y-70730000D01*
X94480000Y-70730000D02*
X93980000Y-70730000D01*
X93780000Y-70730000D02*
X93980000Y-70730000D01*
X91980000Y-70730000D02*
X93780000Y-70730000D01*
X85680000Y-70730000D02*
X89180000Y-70730000D01*
X81930000Y-70730000D02*
X82880000Y-70730000D01*
X80730000Y-70730000D02*
X79980000Y-70730000D01*
X79980000Y-70730000D02*
X79980000Y-58830000D01*
X75820000Y-41020000D02*
X75820000Y-25020000D01*
X91820000Y-41020000D02*
X75820000Y-41020000D01*
X91820000Y-25020000D02*
X91820000Y-41020000D01*
X75820000Y-25020000D02*
X91820000Y-25020000D01*
X70450000Y-69455000D02*
X69250000Y-69455000D01*
X69250000Y-67705000D02*
X70450000Y-67705000D01*
X84490000Y-49925000D02*
X85690000Y-49925000D01*
X85690000Y-51675000D02*
X84490000Y-51675000D01*
X84490000Y-47385000D02*
X85690000Y-47385000D01*
X85690000Y-49135000D02*
X84490000Y-49135000D01*
X90770000Y-51675000D02*
X89570000Y-51675000D01*
X89570000Y-49925000D02*
X90770000Y-49925000D01*
X90770000Y-49135000D02*
X89570000Y-49135000D01*
X89570000Y-47385000D02*
X90770000Y-47385000D01*
X48260000Y-22860000D02*
X66040000Y-22860000D01*
X66040000Y-22860000D02*
X66040000Y-58420000D01*
X66040000Y-58420000D02*
X48260000Y-58420000D01*
X48260000Y-58420000D02*
X48260000Y-22860000D01*
X92360952Y-42076667D02*
X92837143Y-42076667D01*
X92265714Y-42362381D02*
X92599047Y-41362381D01*
X92932381Y-42362381D01*
X93265714Y-42362381D02*
X93265714Y-41362381D01*
X93837143Y-42362381D01*
X93837143Y-41362381D01*
X94170476Y-41362381D02*
X94741905Y-41362381D01*
X94456190Y-42362381D02*
X94456190Y-41362381D01*
X95599048Y-42362381D02*
X95027619Y-42362381D01*
X95313333Y-42362381D02*
X95313333Y-41362381D01*
X95218095Y-41505238D01*
X95122857Y-41600476D01*
X95027619Y-41648095D01*
X49363334Y-70207143D02*
X49315715Y-70254762D01*
X49172858Y-70302381D01*
X49077620Y-70302381D01*
X48934762Y-70254762D01*
X48839524Y-70159524D01*
X48791905Y-70064286D01*
X48744286Y-69873810D01*
X48744286Y-69730952D01*
X48791905Y-69540476D01*
X48839524Y-69445238D01*
X48934762Y-69350000D01*
X49077620Y-69302381D01*
X49172858Y-69302381D01*
X49315715Y-69350000D01*
X49363334Y-69397619D01*
X50315715Y-70302381D02*
X49744286Y-70302381D01*
X50030000Y-70302381D02*
X50030000Y-69302381D01*
X49934762Y-69445238D01*
X49839524Y-69540476D01*
X49744286Y-69588095D01*
X49363334Y-65127143D02*
X49315715Y-65174762D01*
X49172858Y-65222381D01*
X49077620Y-65222381D01*
X48934762Y-65174762D01*
X48839524Y-65079524D01*
X48791905Y-64984286D01*
X48744286Y-64793810D01*
X48744286Y-64650952D01*
X48791905Y-64460476D01*
X48839524Y-64365238D01*
X48934762Y-64270000D01*
X49077620Y-64222381D01*
X49172858Y-64222381D01*
X49315715Y-64270000D01*
X49363334Y-64317619D01*
X49744286Y-64317619D02*
X49791905Y-64270000D01*
X49887143Y-64222381D01*
X50125239Y-64222381D01*
X50220477Y-64270000D01*
X50268096Y-64317619D01*
X50315715Y-64412857D01*
X50315715Y-64508095D01*
X50268096Y-64650952D01*
X49696667Y-65222381D01*
X50315715Y-65222381D01*
X87146667Y-62382381D02*
X87146667Y-63096667D01*
X87099047Y-63239524D01*
X87003809Y-63334762D01*
X86860952Y-63382381D01*
X86765714Y-63382381D01*
X88146667Y-63382381D02*
X87575238Y-63382381D01*
X87860952Y-63382381D02*
X87860952Y-62382381D01*
X87765714Y-62525238D01*
X87670476Y-62620476D01*
X87575238Y-62668095D01*
X84591905Y-61732381D02*
X84591905Y-60732381D01*
X84925239Y-61446667D01*
X85258572Y-60732381D01*
X85258572Y-61732381D01*
X85734762Y-61732381D02*
X85734762Y-61065714D01*
X85734762Y-60732381D02*
X85687143Y-60780000D01*
X85734762Y-60827619D01*
X85782381Y-60780000D01*
X85734762Y-60732381D01*
X85734762Y-60827619D01*
X86639524Y-61684762D02*
X86544286Y-61732381D01*
X86353809Y-61732381D01*
X86258571Y-61684762D01*
X86210952Y-61637143D01*
X86163333Y-61541905D01*
X86163333Y-61256190D01*
X86210952Y-61160952D01*
X86258571Y-61113333D01*
X86353809Y-61065714D01*
X86544286Y-61065714D01*
X86639524Y-61113333D01*
X87068095Y-61732381D02*
X87068095Y-61065714D01*
X87068095Y-61256190D02*
X87115714Y-61160952D01*
X87163333Y-61113333D01*
X87258571Y-61065714D01*
X87353810Y-61065714D01*
X87830000Y-61732381D02*
X87734762Y-61684762D01*
X87687143Y-61637143D01*
X87639524Y-61541905D01*
X87639524Y-61256190D01*
X87687143Y-61160952D01*
X87734762Y-61113333D01*
X87830000Y-61065714D01*
X87972858Y-61065714D01*
X88068096Y-61113333D01*
X88115715Y-61160952D01*
X88163334Y-61256190D01*
X88163334Y-61541905D01*
X88115715Y-61637143D01*
X88068096Y-61684762D01*
X87972858Y-61732381D01*
X87830000Y-61732381D01*
X88544286Y-61684762D02*
X88687143Y-61732381D01*
X88925239Y-61732381D01*
X89020477Y-61684762D01*
X89068096Y-61637143D01*
X89115715Y-61541905D01*
X89115715Y-61446667D01*
X89068096Y-61351429D01*
X89020477Y-61303810D01*
X88925239Y-61256190D01*
X88734762Y-61208571D01*
X88639524Y-61160952D01*
X88591905Y-61113333D01*
X88544286Y-61018095D01*
X88544286Y-60922857D01*
X88591905Y-60827619D01*
X88639524Y-60780000D01*
X88734762Y-60732381D01*
X88972858Y-60732381D01*
X89115715Y-60780000D01*
X89544286Y-61732381D02*
X89544286Y-60732381D01*
X89782381Y-60732381D01*
X89925239Y-60780000D01*
X90020477Y-60875238D01*
X90068096Y-60970476D01*
X90115715Y-61160952D01*
X90115715Y-61303810D01*
X90068096Y-61494286D01*
X90020477Y-61589524D01*
X89925239Y-61684762D01*
X89782381Y-61732381D01*
X89544286Y-61732381D01*
X81986667Y-34472381D02*
X81986667Y-33472381D01*
X82320001Y-34186667D01*
X82653334Y-33472381D01*
X82653334Y-34472381D01*
X83320000Y-33472381D02*
X83510477Y-33472381D01*
X83605715Y-33520000D01*
X83700953Y-33615238D01*
X83748572Y-33805714D01*
X83748572Y-34139048D01*
X83700953Y-34329524D01*
X83605715Y-34424762D01*
X83510477Y-34472381D01*
X83320000Y-34472381D01*
X83224762Y-34424762D01*
X83129524Y-34329524D01*
X83081905Y-34139048D01*
X83081905Y-33805714D01*
X83129524Y-33615238D01*
X83224762Y-33520000D01*
X83320000Y-33472381D01*
X84177143Y-34472381D02*
X84177143Y-33472381D01*
X84415238Y-33472381D01*
X84558096Y-33520000D01*
X84653334Y-33615238D01*
X84700953Y-33710476D01*
X84748572Y-33900952D01*
X84748572Y-34043810D01*
X84700953Y-34234286D01*
X84653334Y-34329524D01*
X84558096Y-34424762D01*
X84415238Y-34472381D01*
X84177143Y-34472381D01*
X85700953Y-34472381D02*
X85129524Y-34472381D01*
X85415238Y-34472381D02*
X85415238Y-33472381D01*
X85320000Y-33615238D01*
X85224762Y-33710476D01*
X85129524Y-33758095D01*
X88534286Y-25567619D02*
X88581905Y-25520000D01*
X88677143Y-25472381D01*
X88915239Y-25472381D01*
X89010477Y-25520000D01*
X89058096Y-25567619D01*
X89105715Y-25662857D01*
X89105715Y-25758095D01*
X89058096Y-25900952D01*
X88486667Y-26472381D01*
X89105715Y-26472381D01*
X89105715Y-28472381D02*
X88534286Y-28472381D01*
X88820000Y-28472381D02*
X88820000Y-27472381D01*
X88724762Y-27615238D01*
X88629524Y-27710476D01*
X88534286Y-27758095D01*
X88772381Y-29472381D02*
X88867620Y-29472381D01*
X88962858Y-29520000D01*
X89010477Y-29567619D01*
X89058096Y-29662857D01*
X89105715Y-29853333D01*
X89105715Y-30091429D01*
X89058096Y-30281905D01*
X89010477Y-30377143D01*
X88962858Y-30424762D01*
X88867620Y-30472381D01*
X88772381Y-30472381D01*
X88677143Y-30424762D01*
X88629524Y-30377143D01*
X88581905Y-30281905D01*
X88534286Y-30091429D01*
X88534286Y-29853333D01*
X88581905Y-29662857D01*
X88629524Y-29567619D01*
X88677143Y-29520000D01*
X88772381Y-29472381D01*
X88486667Y-31472381D02*
X88820000Y-32472381D01*
X89153334Y-31472381D01*
X89010477Y-33805714D02*
X89010477Y-34472381D01*
X88772381Y-33424762D02*
X88534286Y-34139048D01*
X89153334Y-34139048D01*
X88486667Y-35472381D02*
X89105715Y-35472381D01*
X88772381Y-35853333D01*
X88915239Y-35853333D01*
X89010477Y-35900952D01*
X89058096Y-35948571D01*
X89105715Y-36043810D01*
X89105715Y-36281905D01*
X89058096Y-36377143D01*
X89010477Y-36424762D01*
X88915239Y-36472381D01*
X88629524Y-36472381D01*
X88534286Y-36424762D01*
X88486667Y-36377143D01*
X79058096Y-37472381D02*
X78581905Y-37472381D01*
X78534286Y-37948571D01*
X78581905Y-37900952D01*
X78677143Y-37853333D01*
X78915239Y-37853333D01*
X79010477Y-37900952D01*
X79058096Y-37948571D01*
X79105715Y-38043810D01*
X79105715Y-38281905D01*
X79058096Y-38377143D01*
X79010477Y-38424762D01*
X78915239Y-38472381D01*
X78677143Y-38472381D01*
X78581905Y-38424762D01*
X78534286Y-38377143D01*
X79129524Y-36472381D02*
X78796190Y-35996190D01*
X78558095Y-36472381D02*
X78558095Y-35472381D01*
X78939048Y-35472381D01*
X79034286Y-35520000D01*
X79081905Y-35567619D01*
X79129524Y-35662857D01*
X79129524Y-35805714D01*
X79081905Y-35900952D01*
X79034286Y-35948571D01*
X78939048Y-35996190D01*
X78558095Y-35996190D01*
X78534286Y-34424762D02*
X78677143Y-34472381D01*
X78915239Y-34472381D01*
X79010477Y-34424762D01*
X79058096Y-34377143D01*
X79105715Y-34281905D01*
X79105715Y-34186667D01*
X79058096Y-34091429D01*
X79010477Y-34043810D01*
X78915239Y-33996190D01*
X78724762Y-33948571D01*
X78629524Y-33900952D01*
X78581905Y-33853333D01*
X78534286Y-33758095D01*
X78534286Y-33662857D01*
X78581905Y-33567619D01*
X78629524Y-33520000D01*
X78724762Y-33472381D01*
X78962858Y-33472381D01*
X79105715Y-33520000D01*
X79129524Y-32377143D02*
X79081905Y-32424762D01*
X78939048Y-32472381D01*
X78843810Y-32472381D01*
X78700952Y-32424762D01*
X78605714Y-32329524D01*
X78558095Y-32234286D01*
X78510476Y-32043810D01*
X78510476Y-31900952D01*
X78558095Y-31710476D01*
X78605714Y-31615238D01*
X78700952Y-31520000D01*
X78843810Y-31472381D01*
X78939048Y-31472381D01*
X79081905Y-31520000D01*
X79129524Y-31567619D01*
X78820000Y-30472381D02*
X78820000Y-29472381D01*
X78724762Y-27472381D02*
X78915239Y-27472381D01*
X79010477Y-27520000D01*
X79105715Y-27615238D01*
X79153334Y-27805714D01*
X79153334Y-28139048D01*
X79105715Y-28329524D01*
X79010477Y-28424762D01*
X78915239Y-28472381D01*
X78724762Y-28472381D01*
X78629524Y-28424762D01*
X78534286Y-28329524D01*
X78486667Y-28139048D01*
X78486667Y-27805714D01*
X78534286Y-27615238D01*
X78629524Y-27520000D01*
X78724762Y-27472381D01*
X88581905Y-38186667D02*
X89058096Y-38186667D01*
X88486667Y-38472381D02*
X88820000Y-37472381D01*
X89153334Y-38472381D01*
X89081905Y-39520000D02*
X88986667Y-39472381D01*
X88843810Y-39472381D01*
X88700952Y-39520000D01*
X88605714Y-39615238D01*
X88558095Y-39710476D01*
X88510476Y-39900952D01*
X88510476Y-40043810D01*
X88558095Y-40234286D01*
X88605714Y-40329524D01*
X88700952Y-40424762D01*
X88843810Y-40472381D01*
X88939048Y-40472381D01*
X89081905Y-40424762D01*
X89129524Y-40377143D01*
X89129524Y-40043810D01*
X88939048Y-40043810D01*
X79081905Y-39520000D02*
X78986667Y-39472381D01*
X78843810Y-39472381D01*
X78700952Y-39520000D01*
X78605714Y-39615238D01*
X78558095Y-39710476D01*
X78510476Y-39900952D01*
X78510476Y-40043810D01*
X78558095Y-40234286D01*
X78605714Y-40329524D01*
X78700952Y-40424762D01*
X78843810Y-40472381D01*
X78939048Y-40472381D01*
X79081905Y-40424762D01*
X79129524Y-40377143D01*
X79129524Y-40043810D01*
X78939048Y-40043810D01*
X79081905Y-25520000D02*
X78986667Y-25472381D01*
X78843810Y-25472381D01*
X78700952Y-25520000D01*
X78605714Y-25615238D01*
X78558095Y-25710476D01*
X78510476Y-25900952D01*
X78510476Y-26043810D01*
X78558095Y-26234286D01*
X78605714Y-26329524D01*
X78700952Y-26424762D01*
X78843810Y-26472381D01*
X78939048Y-26472381D01*
X79081905Y-26424762D01*
X79129524Y-26377143D01*
X79129524Y-26043810D01*
X78939048Y-26043810D01*
X69683334Y-66932381D02*
X69350000Y-66456190D01*
X69111905Y-66932381D02*
X69111905Y-65932381D01*
X69492858Y-65932381D01*
X69588096Y-65980000D01*
X69635715Y-66027619D01*
X69683334Y-66122857D01*
X69683334Y-66265714D01*
X69635715Y-66360952D01*
X69588096Y-66408571D01*
X69492858Y-66456190D01*
X69111905Y-66456190D01*
X70635715Y-66932381D02*
X70064286Y-66932381D01*
X70350000Y-66932381D02*
X70350000Y-65932381D01*
X70254762Y-66075238D01*
X70159524Y-66170476D01*
X70064286Y-66218095D01*
X81113334Y-51252381D02*
X80780000Y-50776190D01*
X80541905Y-51252381D02*
X80541905Y-50252381D01*
X80922858Y-50252381D01*
X81018096Y-50300000D01*
X81065715Y-50347619D01*
X81113334Y-50442857D01*
X81113334Y-50585714D01*
X81065715Y-50680952D01*
X81018096Y-50728571D01*
X80922858Y-50776190D01*
X80541905Y-50776190D01*
X81970477Y-50585714D02*
X81970477Y-51252381D01*
X81732381Y-50204762D02*
X81494286Y-50919048D01*
X82113334Y-50919048D01*
X81113334Y-48712381D02*
X80780000Y-48236190D01*
X80541905Y-48712381D02*
X80541905Y-47712381D01*
X80922858Y-47712381D01*
X81018096Y-47760000D01*
X81065715Y-47807619D01*
X81113334Y-47902857D01*
X81113334Y-48045714D01*
X81065715Y-48140952D01*
X81018096Y-48188571D01*
X80922858Y-48236190D01*
X80541905Y-48236190D01*
X82018096Y-47712381D02*
X81541905Y-47712381D01*
X81494286Y-48188571D01*
X81541905Y-48140952D01*
X81637143Y-48093333D01*
X81875239Y-48093333D01*
X81970477Y-48140952D01*
X82018096Y-48188571D01*
X82065715Y-48283810D01*
X82065715Y-48521905D01*
X82018096Y-48617143D01*
X81970477Y-48664762D01*
X81875239Y-48712381D01*
X81637143Y-48712381D01*
X81541905Y-48664762D01*
X81494286Y-48617143D01*
X93813334Y-51252381D02*
X93480000Y-50776190D01*
X93241905Y-51252381D02*
X93241905Y-50252381D01*
X93622858Y-50252381D01*
X93718096Y-50300000D01*
X93765715Y-50347619D01*
X93813334Y-50442857D01*
X93813334Y-50585714D01*
X93765715Y-50680952D01*
X93718096Y-50728571D01*
X93622858Y-50776190D01*
X93241905Y-50776190D01*
X94670477Y-50252381D02*
X94480000Y-50252381D01*
X94384762Y-50300000D01*
X94337143Y-50347619D01*
X94241905Y-50490476D01*
X94194286Y-50680952D01*
X94194286Y-51061905D01*
X94241905Y-51157143D01*
X94289524Y-51204762D01*
X94384762Y-51252381D01*
X94575239Y-51252381D01*
X94670477Y-51204762D01*
X94718096Y-51157143D01*
X94765715Y-51061905D01*
X94765715Y-50823810D01*
X94718096Y-50728571D01*
X94670477Y-50680952D01*
X94575239Y-50633333D01*
X94384762Y-50633333D01*
X94289524Y-50680952D01*
X94241905Y-50728571D01*
X94194286Y-50823810D01*
X93813334Y-48712381D02*
X93480000Y-48236190D01*
X93241905Y-48712381D02*
X93241905Y-47712381D01*
X93622858Y-47712381D01*
X93718096Y-47760000D01*
X93765715Y-47807619D01*
X93813334Y-47902857D01*
X93813334Y-48045714D01*
X93765715Y-48140952D01*
X93718096Y-48188571D01*
X93622858Y-48236190D01*
X93241905Y-48236190D01*
X94146667Y-47712381D02*
X94813334Y-47712381D01*
X94384762Y-48712381D01*
X56102381Y-41401905D02*
X56911905Y-41401905D01*
X57007143Y-41354286D01*
X57054762Y-41306667D01*
X57102381Y-41211429D01*
X57102381Y-41020952D01*
X57054762Y-40925714D01*
X57007143Y-40878095D01*
X56911905Y-40830476D01*
X56102381Y-40830476D01*
X56197619Y-40401905D02*
X56150000Y-40354286D01*
X56102381Y-40259048D01*
X56102381Y-40020952D01*
X56150000Y-39925714D01*
X56197619Y-39878095D01*
X56292857Y-39830476D01*
X56388095Y-39830476D01*
X56530952Y-39878095D01*
X57102381Y-40449524D01*
X57102381Y-39830476D01*
X55888095Y-23582381D02*
X55888095Y-24391905D01*
X55935714Y-24487143D01*
X55983333Y-24534762D01*
X56078571Y-24582381D01*
X56269048Y-24582381D01*
X56364286Y-24534762D01*
X56411905Y-24487143D01*
X56459524Y-24391905D01*
X56459524Y-23582381D01*
X56888095Y-24534762D02*
X57030952Y-24582381D01*
X57269048Y-24582381D01*
X57364286Y-24534762D01*
X57411905Y-24487143D01*
X57459524Y-24391905D01*
X57459524Y-24296667D01*
X57411905Y-24201429D01*
X57364286Y-24153810D01*
X57269048Y-24106190D01*
X57078571Y-24058571D01*
X56983333Y-24010952D01*
X56935714Y-23963333D01*
X56888095Y-23868095D01*
X56888095Y-23772857D01*
X56935714Y-23677619D01*
X56983333Y-23630000D01*
X57078571Y-23582381D01*
X57316667Y-23582381D01*
X57459524Y-23630000D01*
X58221429Y-24058571D02*
X58364286Y-24106190D01*
X58411905Y-24153810D01*
X58459524Y-24249048D01*
X58459524Y-24391905D01*
X58411905Y-24487143D01*
X58364286Y-24534762D01*
X58269048Y-24582381D01*
X57888095Y-24582381D01*
X57888095Y-23582381D01*
X58221429Y-23582381D01*
X58316667Y-23630000D01*
X58364286Y-23677619D01*
X58411905Y-23772857D01*
X58411905Y-23868095D01*
X58364286Y-23963333D01*
X58316667Y-24010952D01*
X58221429Y-24058571D01*
X57888095Y-24058571D01*
X65301905Y-67762381D02*
X65301905Y-66762381D01*
X65540000Y-66762381D01*
X65682858Y-66810000D01*
X65778096Y-66905238D01*
X65825715Y-67000476D01*
X65873334Y-67190952D01*
X65873334Y-67333810D01*
X65825715Y-67524286D01*
X65778096Y-67619524D01*
X65682858Y-67714762D01*
X65540000Y-67762381D01*
X65301905Y-67762381D01*
X66825715Y-67762381D02*
X66254286Y-67762381D01*
X66540000Y-67762381D02*
X66540000Y-66762381D01*
X66444762Y-66905238D01*
X66349524Y-67000476D01*
X66254286Y-67048095D01*
M02*
