G04 #@! TF.FileFunction,Soldermask,Top*
%FSLAX46Y46*%
G04 Gerber Fmt 4.6, Leading zero omitted, Abs format (unit mm)*
G04 Created by KiCad (PCBNEW 4.0.2-stable) date Saturday, 16 July 2016 'pmt' 14:41:27*
%MOMM*%
G01*
G04 APERTURE LIST*
%ADD10C,0.100000*%
%ADD11C,1.500000*%
%ADD12R,0.800000X0.280000*%
%ADD13R,1.500000X1.250000*%
%ADD14R,0.700000X2.600000*%
%ADD15R,1.500000X2.600000*%
%ADD16R,1.000000X2.600000*%
%ADD17R,2.700000X1.400000*%
%ADD18R,1.200000X1.200000*%
%ADD19R,3.000000X1.100000*%
%ADD20R,1.500000X1.300000*%
%ADD21C,1.524000*%
%ADD22R,0.800000X0.400000*%
G04 APERTURE END LIST*
D10*
D11*
X95250000Y-38100000D03*
X95250000Y-40100000D03*
D12*
X94250000Y-38100000D03*
D13*
X50780000Y-71120000D03*
X48280000Y-71120000D03*
X50780000Y-66040000D03*
X48280000Y-66040000D03*
D14*
X84280000Y-57080000D03*
X85380000Y-57080000D03*
X86480000Y-57080000D03*
X87580000Y-57080000D03*
X88680000Y-57080000D03*
X89780000Y-57080000D03*
X90880000Y-57080000D03*
X91980000Y-57080000D03*
D15*
X80530000Y-57430000D03*
D16*
X94080000Y-57280000D03*
D17*
X84280000Y-70080000D03*
D18*
X81280000Y-70180000D03*
D17*
X90580000Y-70080000D03*
D19*
X75820000Y-26020000D03*
X75820000Y-28020000D03*
X75820000Y-30020000D03*
X75820000Y-32020000D03*
X75820000Y-34020000D03*
X75820000Y-36020000D03*
X75820000Y-38020000D03*
X75820000Y-40020000D03*
X91820000Y-40020000D03*
X91820000Y-38020000D03*
X91820000Y-36020000D03*
X91820000Y-34020000D03*
X91820000Y-32020000D03*
X91820000Y-30020000D03*
X91820000Y-28020000D03*
X91820000Y-26020000D03*
D20*
X68500000Y-68580000D03*
X71200000Y-68580000D03*
X86440000Y-50800000D03*
X83740000Y-50800000D03*
X86440000Y-48260000D03*
X83740000Y-48260000D03*
X88820000Y-50800000D03*
X91520000Y-50800000D03*
X88820000Y-48260000D03*
X91520000Y-48260000D03*
D21*
X49530000Y-24130000D03*
X49530000Y-26670000D03*
X49530000Y-29210000D03*
X49530000Y-31750000D03*
X49530000Y-34290000D03*
X49530000Y-36830000D03*
X49530000Y-39370000D03*
X49530000Y-41910000D03*
X49530000Y-44450000D03*
X49530000Y-46990000D03*
X49530000Y-49530000D03*
X49530000Y-52070000D03*
X49530000Y-54610000D03*
X49530000Y-57150000D03*
X64770000Y-57150000D03*
X64770000Y-54610000D03*
X64770000Y-52070000D03*
X64770000Y-49530000D03*
X64770000Y-46990000D03*
X64770000Y-44450000D03*
X64770000Y-41910000D03*
X64770000Y-39370000D03*
X64770000Y-36830000D03*
X64770000Y-34290000D03*
X64770000Y-31750000D03*
X64770000Y-29210000D03*
X54610000Y-57150000D03*
X62230000Y-57150000D03*
X64770000Y-26670000D03*
X57150000Y-57150000D03*
X52070000Y-57150000D03*
D22*
X64770000Y-67280000D03*
X64770000Y-68580000D03*
D21*
X48260000Y-62230000D03*
X74930000Y-66040000D03*
X73660000Y-63500000D03*
X76200000Y-63500000D03*
X75530000Y-71120000D03*
X73290000Y-71120000D03*
X67310000Y-66040000D03*
X71050000Y-71120000D03*
X64770000Y-71120000D03*
M02*
