M48
;DRILL file {KiCad 4.0.2-stable} date Saturday, 16 July 2016 'pmt' 14:41:30
;FORMAT={-:-/ absolute / metric / decimal}
FMAT,2
METRIC,TZ
T1C0.400
T2C0.762
T3C1.000
%
G90
G05
M71
T1
X48.26Y-68.58
X52.07Y-48.26
X53.34Y-59.69
X53.34Y-60.96
X55.88Y-59.69
X55.88Y-60.96
X55.88Y-62.23
X57.15Y-43.18
X57.15Y-45.72
X58.42Y-60.96
X58.42Y-62.23
X59.69Y-48.26
X62.23Y-66.04
X62.23Y-71.12
X64.77Y-66.04
X66.04Y-59.69
X67.31Y-33.02
X67.31Y-45.72
X68.58Y-50.8
X68.58Y-54.61
X68.58Y-57.15
X68.58Y-59.69
X68.58Y-60.96
X68.58Y-62.23
X69.85Y-63.5
X71.12Y-26.67
X71.12Y-27.94
X71.12Y-48.26
X71.12Y-50.8
X71.12Y-54.61
X71.12Y-57.15
X71.12Y-62.23
X72.39Y-26.67
X73.66Y-55.88
X73.66Y-58.42
X74.93Y-57.15
X76.2Y-46.99
X76.2Y-48.26
X77.47Y-62.23
X78.74Y-40.64
X78.74Y-46.99
X81.28Y-54.61
X85.09Y-54.61
X85.09Y-59.69
X85.09Y-63.5
X86.36Y-53.34
X87.63Y-52.07
X87.63Y-69.85
X88.9Y-38.1
X88.9Y-54.61
X90.17Y-53.34
X91.44Y-59.69
X92.71Y-60.96
X93.98Y-59.69
X95.25Y-53.34
X95.25Y-60.96
T2
X48.26Y-62.23
X49.53Y-24.13
X49.53Y-26.67
X49.53Y-29.21
X49.53Y-31.75
X49.53Y-34.29
X49.53Y-36.83
X49.53Y-39.37
X49.53Y-41.91
X49.53Y-44.45
X49.53Y-46.99
X49.53Y-49.53
X49.53Y-52.07
X49.53Y-54.61
X49.53Y-57.15
X52.07Y-57.15
X54.61Y-57.15
X57.15Y-57.15
X62.23Y-57.15
X64.77Y-26.67
X64.77Y-29.21
X64.77Y-31.75
X64.77Y-34.29
X64.77Y-36.83
X64.77Y-39.37
X64.77Y-41.91
X64.77Y-44.45
X64.77Y-46.99
X64.77Y-49.53
X64.77Y-52.07
X64.77Y-54.61
X64.77Y-57.15
X64.77Y-71.12
X67.31Y-66.04
X71.05Y-71.12
X73.29Y-71.12
X73.66Y-63.5
X74.93Y-66.04
X75.53Y-71.12
X76.2Y-63.5
T3
X95.25Y-38.1
X95.25Y-40.1
T0
M30
